<svg xmlns="http://www.w3.org/2000/svg" xmlns:xlink="http://www.w3.org/1999/xlink" width="1280" zoomAndPan="magnify" viewBox="0 0 960 540.000001" height="720" preserveAspectRatio="xMidYMid meet" version="1.0"><defs><g/><clipPath id="59d8a7d2e0"><path d="M 0.886719 0 L 959.113281 0 L 959.113281 539 L 0.886719 539 Z M 0.886719 0 " clip-rule="nonzero"/></clipPath><clipPath id="6bc993e22c"><path d="M 671 0 L 959.113281 0 L 959.113281 199 L 671 199 Z M 671 0 " clip-rule="nonzero"/></clipPath><clipPath id="4ff77c637d"><path d="M 556.070312 -55.976562 L 829.878906 -263.578125 L 1125.675781 126.558594 L 851.863281 334.160156 Z M 556.070312 -55.976562 " clip-rule="nonzero"/></clipPath><clipPath id="69189e8ab9"><path d="M 556.070312 -55.976562 L 829.878906 -263.578125 L 1125.675781 126.558594 L 851.863281 334.160156 Z M 556.070312 -55.976562 " clip-rule="nonzero"/></clipPath><clipPath id="188f0bcb3c"><path d="M 0.886719 272 L 209 272 L 209 539 L 0.886719 539 Z M 0.886719 272 " clip-rule="nonzero"/></clipPath><clipPath id="50a58939ac"><path d="M -192.0625 524.472656 L -50.089844 265.933594 L 276.691406 445.382812 L 134.71875 703.921875 Z M -192.0625 524.472656 " clip-rule="nonzero"/></clipPath><clipPath id="322a78ee22"><path d="M -50.230469 266.191406 L -192.203125 524.726562 L 134.578125 704.175781 L 276.550781 445.640625 Z M -50.230469 266.191406 " clip-rule="nonzero"/></clipPath></defs><g clip-path="url(#59d8a7d2e0)"><path fill="#ffffff" d="M 0.886719 0 L 959.113281 0 L 959.113281 539 L 0.886719 539 Z M 0.886719 0 " fill-opacity="1" fill-rule="nonzero"/><path fill="#1d1d1d" d="M 0.886719 0 L 959.113281 0 L 959.113281 539 L 0.886719 539 Z M 0.886719 0 " fill-opacity="1" fill-rule="nonzero"/></g><g clip-path="url(#6bc993e22c)"><g clip-path="url(#4ff77c637d)"><g clip-path="url(#69189e8ab9)"><path fill="#2d2d2d" d="M 775.660156 -50.929688 C 729.136719 -13.4375 712.335938 23.890625 725.253906 61.054688 L 724.972656 60.292969 C 729.109375 70.84375 734.152344 75.375 740.109375 73.886719 C 740.246094 73.851562 740.386719 73.816406 740.523438 73.785156 C 740.390625 73.816406 740.289062 73.84375 740.222656 73.867188 C 741.902344 73.277344 744.589844 71.398438 748.285156 68.226562 L 745.429688 71.050781 C 770.140625 42.890625 788.390625 25.367188 800.183594 18.484375 L 799.878906 18.667969 C 808.59375 13.429688 816.792969 10.082031 824.476562 8.617188 C 836.511719 6.324219 846.8125 8.335938 855.382812 14.65625 L 854.417969 13.988281 C 868.273438 23.050781 875.40625 38.058594 875.820312 59.007812 L 874.757812 52.671875 C 875.597656 55.242188 876.050781 58.179688 876.117188 61.488281 C 876.292969 70.460938 873.007812 91.769531 866.257812 125.410156 L 866.601562 123.152344 C 866.023438 128.75 866.046875 133.519531 866.671875 137.464844 C 866.714844 137.753906 866.753906 138.042969 866.789062 138.335938 C 867.644531 145.65625 869.046875 149.863281 870.992188 150.964844 L 868.796875 149.882812 C 869.355469 150.121094 869.75 150.238281 869.980469 150.234375 C 869.976562 150.234375 869.972656 150.234375 869.972656 150.238281 C 871.351562 150.066406 873.660156 148.40625 876.898438 145.253906 C 877.28125 144.882812 877.675781 144.519531 878.082031 144.167969 C 877.816406 144.398438 877.621094 144.582031 877.492188 144.726562 C 882.523438 139.167969 890.613281 121.601562 901.757812 92.027344 C 902.34375 90.46875 903.089844 88.953125 903.976562 87.507812 C 906.011719 84.195312 908.097656 81.28125 910.234375 78.765625 C 919.351562 68.027344 929.722656 63.25 941.355469 64.441406 L 938.363281 64.316406 C 944.964844 64.1875 951.273438 66.101562 957.289062 70.066406 C 963.03125 73.847656 969.148438 80.078125 975.640625 88.753906 L 973.707031 86.527344 C 974.597656 87.410156 975.488281 88.425781 976.375 89.570312 L 976.371094 89.570312 C 980.800781 95.285156 989.464844 110.929688 1002.375 136.5 L 1001.40625 134.789062 C 1004.703125 139.996094 1007.644531 143.886719 1010.230469 146.453125 L 1010.265625 146.488281 C 1012.792969 149.011719 1014.71875 150.503906 1016.035156 150.96875 C 1013.9375 150.230469 1011.660156 150.652344 1009.207031 152.242188 C 1010.671875 151.292969 1012.214844 150.484375 1013.8125 149.828125 C 1013.742188 149.859375 1013.6875 149.882812 1013.648438 149.902344 C 1018.695312 147.050781 1024.300781 136.238281 1030.46875 117.46875 L 1030.464844 117.480469 C 1032.539062 111.160156 1030.488281 100.398438 1024.308594 85.207031 L 1015.6875 64.003906 L 1061.609375 42.472656 L 1070.230469 63.671875 C 1080.449219 88.804688 1082.734375 109.984375 1077.078125 127.210938 L 1077.074219 127.222656 C 1066.539062 159.28125 1052.425781 180.3125 1034.738281 190.324219 C 1032.726562 191.460938 1030.675781 192.460938 1028.582031 193.320312 L 1033.1875 190.90625 C 1020.867188 198.878906 1008.109375 200.542969 994.917969 195.890625 C 987.488281 193.273438 980.285156 188.480469 973.304688 181.519531 L 973.335938 181.554688 C 968.582031 176.832031 963.738281 170.578125 958.808594 162.789062 C 958.460938 162.234375 958.136719 161.664062 957.839844 161.074219 C 946.105469 137.832031 938.820312 124.378906 935.984375 120.71875 C 936.167969 120.953125 936.433594 121.246094 936.78125 121.59375 C 936.082031 120.898438 935.4375 120.152344 934.847656 119.367188 C 931.199219 114.488281 928.503906 111.480469 926.769531 110.335938 C 928.410156 111.417969 930.800781 111.925781 933.9375 111.867188 C 932.933594 111.886719 931.933594 111.84375 930.945312 111.742188 C 937.867188 112.453125 943.117188 110.695312 946.699219 106.476562 C 946.402344 106.824219 945.972656 107.457031 945.414062 108.367188 L 947.632812 103.847656 C 934.105469 139.742188 922.488281 163.054688 912.78125 173.78125 L 912.777344 173.78125 C 911.386719 175.320312 909.960938 176.722656 908.503906 177.988281 L 909.6875 176.902344 C 897.355469 188.898438 884.390625 195.734375 870.785156 197.410156 C 868.847656 197.648438 866.917969 197.777344 864.988281 197.792969 C 858.144531 197.851562 851.53125 196.527344 845.148438 193.828125 C 844.394531 193.507812 843.660156 193.148438 842.953125 192.75 C 828.835938 184.785156 820.53125 170.128906 818.039062 148.777344 L 818.15625 149.648438 C 816.929688 141.875 816.808594 133.210938 817.792969 123.660156 C 817.871094 122.90625 817.984375 122.152344 818.136719 121.402344 C 824.203125 91.15625 827.183594 73.234375 827.074219 67.636719 C 827.09375 68.710938 827.347656 69.996094 827.839844 71.488281 C 827.175781 69.464844 826.820312 67.335938 826.777344 65.152344 C 826.65625 59.066406 825.734375 55.460938 824.011719 54.332031 C 823.683594 54.121094 823.363281 53.898438 823.050781 53.664062 C 824.96875 55.078125 826.855469 55.609375 828.710938 55.253906 C 827.410156 55.503906 825.253906 56.53125 822.238281 58.34375 C 822.136719 58.402344 822.035156 58.464844 821.933594 58.523438 C 815.480469 62.289062 801.933594 75.933594 781.292969 99.460938 C 780.410156 100.464844 779.453125 101.410156 778.433594 102.285156 C 769.328125 110.09375 760.613281 115.464844 752.289062 118.390625 C 750.472656 119.027344 748.671875 119.558594 746.875 119.976562 L 747.292969 119.875 C 714.910156 127.960938 692.097656 115.117188 678.859375 81.339844 C 678.761719 81.085938 678.667969 80.832031 678.578125 80.578125 C 658.363281 22.429688 681.125 -33.132812 746.863281 -86.109375 L 766.714844 -102.109375 L 795.515625 -66.929688 Z M 775.660156 -50.929688 " fill-opacity="1" fill-rule="nonzero"/></g></g></g><path stroke-linecap="butt" transform="matrix(0.748614, 0, 0, 0.748614, 350.167944, 84.46123)" fill="none" stroke-linejoin="miter" d="M 0.0000334449 1.001461 L 545.524042 1.001461 " stroke="#ffffff" stroke-width="2" stroke-opacity="1" stroke-miterlimit="4"/><g clip-path="url(#188f0bcb3c)"><g clip-path="url(#50a58939ac)"><g clip-path="url(#322a78ee22)"><path fill="#2d2d2d" d="M -59.4375 294.242188 C -80.9375 325.929688 -95.585938 352.089844 -103.378906 372.71875 L -102.363281 370.390625 C -125.632812 417.148438 -136.132812 451.722656 -133.867188 474.109375 C -133.660156 476.132812 -133.21875 478.132812 -132.550781 480.066406 C -125.167969 501.394531 -109.933594 510.082031 -86.847656 506.128906 C -84.363281 505.703125 -81.820312 505.085938 -79.214844 504.277344 C -72.3125 502.136719 -64.6875 498.523438 -56.332031 493.433594 C -56.101562 493.292969 -55.871094 493.148438 -55.644531 493 C -47.351562 487.585938 -36.703125 479.175781 -23.699219 467.769531 C -23.566406 467.65625 -23.4375 467.539062 -23.3125 467.421875 C 24.277344 423.941406 51.441406 399.980469 58.1875 395.535156 C 56.128906 396.890625 53.5 397.855469 50.292969 398.425781 C 54.507812 397.675781 58.449219 395.925781 61.78125 393.332031 C 65.808594 390.191406 68.703125 388.316406 70.46875 387.707031 C 67.246094 388.824219 63.4375 388.253906 59.042969 385.996094 L 51.53125 380.347656 C 49.117188 377.78125 47.746094 375.359375 47.425781 373.082031 C 47.949219 376.796875 46.6875 384.484375 43.644531 396.148438 L 44.515625 393.441406 C 22.59375 450.34375 5.085938 497.765625 -8.007812 535.703125 C -8.035156 535.785156 -8.0625 535.867188 -8.089844 535.949219 C -14.867188 556.25 -17.121094 572.726562 -14.847656 585.375 C -13.726562 591.625 -11.5625 597.210938 -8.351562 602.132812 C -4.417969 608.167969 1.785156 612.453125 8.851562 614.019531 C 17.125 615.851562 25.511719 615.277344 34.007812 612.292969 C 45.210938 608.359375 56.628906 599.902344 68.253906 586.914062 C 68.632812 586.492188 68.996094 586.054688 69.34375 585.609375 C 111.953125 531.03125 143.769531 493.097656 164.796875 471.808594 L 162.925781 473.519531 C 171.515625 466.40625 177.382812 462.226562 180.535156 460.988281 C 172.71875 464.0625 165.328125 461.574219 158.359375 453.523438 C 156.042969 450.847656 154.484375 447.917969 153.679688 444.734375 C 153.921875 445.691406 154.21875 446.636719 154.566406 447.566406 L 154.558594 447.546875 C 154.558594 447.542969 154.558594 447.542969 154.558594 447.546875 L 154.566406 447.5625 C 156.429688 452.550781 154.992188 463.484375 150.257812 480.363281 C 150.25 480.402344 150.242188 480.429688 150.230469 480.46875 C 134.738281 536.625 116.898438 594.285156 96.714844 653.449219 L 88.285156 678.148438 L 139.03125 696.070312 L 147.460938 671.367188 C 167.96875 611.25 186.105469 552.628906 201.867188 495.5 L 201.839844 495.605469 C 209.597656 467.941406 210.550781 446.285156 204.699219 430.632812 L 204.707031 430.648438 C 204.699219 430.632812 204.691406 430.613281 204.683594 430.589844 L 205.5625 433.402344 C 204.289062 428.363281 202 423.929688 198.6875 420.105469 C 188.613281 408.46875 175.554688 405.808594 159.507812 412.121094 C 151.195312 415.390625 140.628906 422.339844 127.8125 432.960938 C 127.160156 433.503906 126.535156 434.074219 125.941406 434.675781 C 103.527344 457.371094 70.410156 496.78125 26.59375 552.910156 L 27.6875 551.601562 C 21.921875 558.042969 17.628906 561.757812 14.816406 562.746094 C 15.933594 562.351562 17.410156 562.359375 19.242188 562.765625 L 36.445312 574.652344 C 37.207031 575.816406 37.65625 576.804688 37.804688 577.617188 C 37.085938 573.625 38.742188 565.605469 42.765625 553.546875 L 42.683594 553.792969 C 55.578125 516.421875 72.882812 469.558594 94.589844 413.210938 C 94.933594 412.324219 95.222656 411.421875 95.464844 410.5 C 100.234375 392.230469 101.875 377.824219 100.394531 367.28125 C 99.140625 358.375 95.78125 351.019531 90.3125 345.214844 C 88.152344 342.921875 85.609375 341.011719 82.800781 339.566406 C 73.234375 334.648438 62.78125 334.160156 51.441406 338.097656 C 44.246094 340.597656 36.390625 345.164062 27.867188 351.804688 L 39.355469 346.710938 C 35.425781 347.410156 31.5 349.054688 27.578125 351.636719 C 18.578125 357.570312 -10.710938 383.183594 -60.289062 428.484375 L -59.902344 428.136719 C -71.085938 437.949219 -79.808594 444.898438 -86.070312 448.984375 L -85.382812 448.550781 C -90.070312 451.40625 -93.800781 453.261719 -96.574219 454.125 C -96.953125 454.242188 -97.234375 454.316406 -97.414062 454.347656 C -89.878906 453.054688 -84.730469 456.398438 -81.972656 464.367188 L -80.65625 470.320312 C -81.925781 457.773438 -73.109375 432.5 -54.203125 394.511719 C -53.824219 393.753906 -53.488281 392.976562 -53.1875 392.183594 C -46.796875 375.273438 -33.96875 352.617188 -14.699219 324.214844 L -0.0546875 302.628906 L -44.792969 272.65625 Z M -59.4375 294.242188 " fill-opacity="1" fill-rule="nonzero"/></g></g></g><path stroke-linecap="butt" transform="matrix(0.748614, 0, 0, 0.748614, 63.123079, 456.992048)" fill="none" stroke-linejoin="miter" d="M 0.00256617 1.002038 L 731.985823 1.002038 " stroke="#ffffff" stroke-width="2" stroke-opacity="1" stroke-miterlimit="4"/><g fill="#ffffff" fill-opacity="1"><g transform="translate(113.306621, 78.206523)"><g><path d="M 12.582031 0.464844 C 9.160156 0.464844 6.472656 -0.300781 4.515625 -1.832031 C 2.558594 -3.363281 1.441406 -5.558594 1.15625 -8.414062 L 7.988281 -9.03125 C 8.273438 -7.746094 8.832031 -6.722656 9.667969 -5.964844 C 10.503906 -5.203125 11.785156 -4.824219 13.507812 -4.824219 C 14.253906 -4.824219 14.90625 -4.894531 15.457031 -5.035156 C 16.011719 -5.179688 16.519531 -5.351562 16.984375 -5.558594 C 17.242188 -5.945312 17.425781 -6.316406 17.542969 -6.675781 C 17.660156 -7.039062 17.714844 -7.488281 17.714844 -8.027344 C 17.714844 -8.929688 17.273438 -9.554688 16.386719 -9.902344 C 15.496094 -10.246094 13.984375 -10.5 11.851562 -10.652344 C 9.148438 -10.808594 7.058594 -11.21875 5.578125 -11.886719 C 4.097656 -12.558594 3.074219 -13.433594 2.507812 -14.511719 C 1.941406 -15.59375 1.660156 -16.828125 1.660156 -18.21875 C 1.660156 -19.660156 2.121094 -20.925781 3.050781 -22.019531 C 3.976562 -23.113281 5.28125 -23.96875 6.96875 -24.585938 C 8.652344 -25.203125 10.613281 -25.511719 12.851562 -25.511719 C 16.609375 -25.511719 19.484375 -24.785156 21.480469 -23.332031 C 23.472656 -21.878906 24.636719 -19.351562 24.972656 -15.75 L 18.21875 -15.015625 C 17.960938 -16.636719 17.425781 -17.902344 16.617188 -18.816406 C 15.804688 -19.730469 14.410156 -20.1875 12.429688 -20.1875 C 11.863281 -20.1875 11.335938 -20.128906 10.847656 -20.011719 C 10.355469 -19.898438 9.945312 -19.75 9.609375 -19.570312 C 9.042969 -18.773438 8.761719 -17.859375 8.761719 -16.828125 C 8.761719 -16.339844 8.890625 -15.894531 9.148438 -15.496094 C 9.40625 -15.097656 9.914062 -14.777344 10.671875 -14.53125 C 11.429688 -14.289062 12.53125 -14.101562 13.972656 -13.972656 C 16.3125 -13.816406 18.171875 -13.542969 19.550781 -13.144531 C 20.925781 -12.742188 21.941406 -12.242188 22.597656 -11.636719 C 23.253906 -11.03125 23.6875 -10.34375 23.890625 -9.574219 C 24.097656 -8.800781 24.199219 -7.964844 24.199219 -7.0625 C 24.199219 -5.492188 23.707031 -4.144531 22.714844 -3.011719 C 21.722656 -1.878906 20.355469 -1.015625 18.605469 -0.425781 C 16.855469 0.167969 14.847656 0.464844 12.582031 0.464844 Z M 12.582031 0.464844 "/></g></g></g><g fill="#ffffff" fill-opacity="1"><g transform="translate(137.157183, 78.206523)"><g><path d="M 13.703125 0.464844 C 9.972656 0.464844 7.03125 -0.605469 4.882812 -2.742188 C 2.734375 -4.875 1.660156 -8.117188 1.660156 -12.46875 C 1.660156 -16.6875 2.726562 -19.917969 4.863281 -22.15625 C 7 -24.394531 10.191406 -25.511719 14.4375 -25.511719 C 18.089844 -25.511719 20.835938 -24.691406 22.675781 -23.042969 C 24.515625 -21.394531 25.640625 -18.808594 26.054688 -15.285156 L 18.835938 -14.667969 C 18.296875 -18.347656 16.636719 -20.1875 13.855469 -20.1875 C 12.363281 -20.1875 11.089844 -19.683594 10.035156 -18.679688 C 9.726562 -17.703125 9.5 -16.738281 9.359375 -15.785156 C 9.21875 -14.835938 9.148438 -13.714844 9.148438 -12.429688 C 9.148438 -10.242188 9.578125 -8.445312 10.441406 -7.042969 C 11.304688 -5.640625 12.632812 -4.941406 14.4375 -4.941406 C 15.027344 -4.941406 15.632812 -5.03125 16.25 -5.210938 C 16.867188 -5.390625 17.382812 -5.648438 17.792969 -5.984375 C 18.078125 -6.625 18.300781 -7.261719 18.46875 -7.894531 C 18.636719 -8.523438 18.773438 -9.226562 18.875 -9.996094 L 26.09375 -9.996094 C 25.757812 -6.472656 24.632812 -3.847656 22.714844 -2.121094 C 20.796875 -0.398438 17.792969 0.464844 13.703125 0.464844 Z M 13.703125 0.464844 "/></g></g></g><g fill="#ffffff" fill-opacity="1"><g transform="translate(162.628694, 78.206523)"><g><path d="M 6.445312 -26.132812 C 4.722656 -26.132812 3.523438 -26.367188 2.855469 -26.84375 C 2.1875 -27.320312 1.851562 -28.046875 1.851562 -29.027344 C 1.851562 -30.03125 2.1875 -30.777344 2.855469 -31.265625 C 3.523438 -31.753906 4.722656 -31.996094 6.445312 -31.996094 C 8.171875 -31.996094 9.367188 -31.753906 10.035156 -31.265625 C 10.703125 -30.777344 11.039062 -30.03125 11.039062 -29.027344 C 11.039062 -28.046875 10.703125 -27.320312 10.035156 -26.84375 C 9.367188 -26.367188 8.171875 -26.132812 6.445312 -26.132812 Z M 2.625 0 C 2.675781 -1.980469 2.714844 -3.871094 2.742188 -5.675781 C 2.765625 -7.476562 2.777344 -9.261719 2.777344 -11.039062 C 2.777344 -13.304688 2.765625 -15.574219 2.742188 -17.851562 C 2.714844 -20.128906 2.675781 -22.246094 2.625 -24.199219 C 3.085938 -24.175781 3.640625 -24.128906 4.285156 -24.066406 C 4.925781 -24 5.648438 -23.96875 6.445312 -23.96875 C 7.296875 -23.96875 8.027344 -24 8.644531 -24.066406 C 9.261719 -24.128906 9.804688 -24.175781 10.265625 -24.199219 C 10.265625 -23.25 10.261719 -22.039062 10.246094 -20.574219 C 10.234375 -19.105469 10.222656 -17.535156 10.210938 -15.863281 C 10.195312 -14.191406 10.191406 -12.582031 10.191406 -11.039062 C 10.191406 -9.777344 10.195312 -8.480469 10.210938 -7.140625 C 10.222656 -5.800781 10.234375 -4.515625 10.246094 -3.28125 C 10.261719 -2.046875 10.265625 -0.953125 10.265625 0 Z M 2.625 0 "/></g></g></g><g fill="#ffffff" fill-opacity="1"><g transform="translate(173.318676, 78.206523)"><g><path d="M 26.054688 -12.582031 L 9.109375 -12.503906 L 9.109375 -12.351562 C 9.109375 -10.164062 9.539062 -8.375 10.402344 -6.984375 C 11.265625 -5.597656 12.597656 -4.902344 14.398438 -4.902344 C 14.988281 -4.902344 15.582031 -5 16.171875 -5.191406 C 16.765625 -5.382812 17.277344 -5.648438 17.714844 -5.984375 C 18.257812 -7.242188 18.605469 -8.582031 18.757812 -9.996094 L 25.9375 -9.84375 C 25.707031 -7.605469 25.152344 -5.71875 24.277344 -4.1875 C 23.402344 -2.65625 22.109375 -1.5 20.398438 -0.714844 C 18.6875 0.0703125 16.457031 0.464844 13.703125 0.464844 C 9.792969 0.464844 6.804688 -0.59375 4.746094 -2.703125 C 2.6875 -4.8125 1.660156 -8.042969 1.660156 -12.390625 C 1.660156 -16.765625 2.742188 -20.03125 4.902344 -22.195312 C 7.0625 -24.355469 10.242188 -25.4375 14.4375 -25.4375 C 18.269531 -25.4375 21.164062 -24.347656 23.121094 -22.175781 C 25.074219 -20 26.054688 -16.996094 26.054688 -13.160156 L 25.898438 -13.160156 Z M 13.855469 -20.148438 C 13.136719 -20.148438 12.441406 -20.011719 11.773438 -19.742188 C 11.101562 -19.472656 10.511719 -19.105469 9.996094 -18.644531 C 9.816406 -18.128906 9.675781 -17.605469 9.574219 -17.078125 C 9.46875 -16.550781 9.378906 -16.019531 9.300781 -15.476562 L 18.566406 -15.476562 C 18.230469 -16.96875 17.679688 -18.121094 16.90625 -18.933594 C 16.132812 -19.742188 15.117188 -20.148438 13.855469 -20.148438 Z M 13.855469 -20.148438 "/></g></g></g><g fill="#ffffff" fill-opacity="1"><g transform="translate(198.790186, 78.206523)"><g><path d="M 2.625 0 C 2.703125 -1.957031 2.746094 -3.976562 2.761719 -6.058594 C 2.773438 -8.144531 2.777344 -10.28125 2.777344 -12.46875 C 2.777344 -14.601562 2.773438 -16.730469 2.761719 -18.855469 C 2.746094 -20.976562 2.714844 -23.015625 2.664062 -24.972656 L 10.34375 -24.972656 L 9.609375 -19.648438 L 10.074219 -19.648438 C 10.511719 -20.625 11.136719 -21.558594 11.945312 -22.445312 C 12.757812 -23.332031 13.742188 -24.058594 14.898438 -24.625 C 16.058594 -25.191406 17.371094 -25.476562 18.835938 -25.476562 C 20.738281 -25.476562 22.246094 -25.074219 23.351562 -24.277344 C 24.457031 -23.480469 25.257812 -22.328125 25.746094 -20.824219 C 26.234375 -19.320312 26.503906 -17.472656 26.554688 -15.285156 C 26.582031 -14.667969 26.59375 -13.824219 26.59375 -12.757812 C 26.59375 -11.6875 26.601562 -10.523438 26.613281 -9.261719 C 26.625 -8.003906 26.640625 -6.753906 26.652344 -5.519531 C 26.664062 -4.285156 26.679688 -3.171875 26.691406 -2.179688 C 26.703125 -1.191406 26.722656 -0.464844 26.75 0 L 19.144531 0 C 19.171875 -0.902344 19.191406 -1.757812 19.203125 -2.566406 C 19.214844 -3.378906 19.222656 -4.253906 19.222656 -5.191406 C 19.222656 -6.128906 19.222656 -7.21875 19.222656 -8.453125 C 19.222656 -9.6875 19.222656 -11.179688 19.222656 -12.929688 C 19.222656 -14.113281 19.117188 -15.203125 18.914062 -16.191406 C 18.707031 -17.183594 18.335938 -17.972656 17.792969 -18.566406 C 17.253906 -19.15625 16.46875 -19.453125 15.4375 -19.453125 C 14.847656 -19.453125 14.191406 -19.234375 13.472656 -18.796875 C 12.75 -18.359375 12.09375 -17.808594 11.503906 -17.136719 C 10.910156 -16.46875 10.511719 -15.773438 10.304688 -15.054688 C 10.253906 -14.410156 10.222656 -13.734375 10.210938 -13.027344 C 10.195312 -12.320312 10.191406 -11.785156 10.191406 -11.425781 C 10.191406 -9.339844 10.195312 -7.386719 10.210938 -5.558594 C 10.222656 -3.730469 10.265625 -1.878906 10.34375 0 Z M 2.625 0 "/></g></g></g><g fill="#ffffff" fill-opacity="1"><g transform="translate(225.380922, 78.206523)"><g><path d="M 12.390625 0.347656 C 9.945312 0.347656 8.097656 -0.0625 6.851562 -0.886719 C 5.601562 -1.710938 4.761719 -2.953125 4.324219 -4.613281 C 3.886719 -6.273438 3.667969 -8.324219 3.667969 -10.769531 L 3.667969 -19.683594 L 0.386719 -19.53125 L 0.386719 -25.050781 L 3.589844 -24.933594 C 3.589844 -25.835938 3.582031 -26.640625 3.570312 -27.347656 C 3.558594 -28.054688 3.550781 -28.808594 3.550781 -29.605469 C 4.835938 -29.605469 6.125 -29.628906 7.410156 -29.683594 C 8.699219 -29.734375 9.984375 -29.796875 11.269531 -29.875 C 11.246094 -28.847656 11.230469 -27.972656 11.230469 -27.25 C 11.230469 -26.53125 11.21875 -25.757812 11.195312 -24.933594 C 11.734375 -24.933594 12.402344 -24.941406 13.199219 -24.953125 C 14 -24.964844 14.808594 -24.984375 15.632812 -25.011719 C 16.457031 -25.039062 17.164062 -25.050781 17.753906 -25.050781 C 17.730469 -24.585938 17.699219 -24.136719 17.660156 -23.699219 C 17.621094 -23.261719 17.601562 -22.796875 17.601562 -22.308594 C 17.601562 -21.871094 17.589844 -21.429688 17.5625 -20.976562 C 17.535156 -20.527344 17.523438 -20.046875 17.523438 -19.53125 L 11.15625 -19.683594 C 11.15625 -18.734375 11.15625 -17.671875 11.15625 -16.5 C 11.15625 -15.328125 11.15625 -14.179688 11.15625 -13.046875 C 11.15625 -11.914062 11.15625 -10.898438 11.15625 -9.996094 C 11.15625 -8.734375 11.265625 -7.640625 11.484375 -6.714844 C 11.703125 -5.789062 12.195312 -5.328125 12.96875 -5.328125 C 13.714844 -5.328125 14.527344 -5.371094 15.402344 -5.460938 C 16.277344 -5.550781 17.007812 -5.648438 17.601562 -5.75 C 17.601562 -5.339844 17.582031 -4.78125 17.542969 -4.070312 C 17.503906 -3.363281 17.472656 -2.65625 17.445312 -1.949219 C 17.421875 -1.242188 17.40625 -0.65625 17.40625 -0.191406 C 16.6875 -0.0390625 15.890625 0.0898438 15.015625 0.191406 C 14.140625 0.296875 13.265625 0.347656 12.390625 0.347656 Z M 12.390625 0.347656 "/></g></g></g><g fill="#ffffff" fill-opacity="1"><g transform="translate(241.744237, 78.206523)"><g><path d="M 6.445312 -26.132812 C 4.722656 -26.132812 3.523438 -26.367188 2.855469 -26.84375 C 2.1875 -27.320312 1.851562 -28.046875 1.851562 -29.027344 C 1.851562 -30.03125 2.1875 -30.777344 2.855469 -31.265625 C 3.523438 -31.753906 4.722656 -31.996094 6.445312 -31.996094 C 8.171875 -31.996094 9.367188 -31.753906 10.035156 -31.265625 C 10.703125 -30.777344 11.039062 -30.03125 11.039062 -29.027344 C 11.039062 -28.046875 10.703125 -27.320312 10.035156 -26.84375 C 9.367188 -26.367188 8.171875 -26.132812 6.445312 -26.132812 Z M 2.625 0 C 2.675781 -1.980469 2.714844 -3.871094 2.742188 -5.675781 C 2.765625 -7.476562 2.777344 -9.261719 2.777344 -11.039062 C 2.777344 -13.304688 2.765625 -15.574219 2.742188 -17.851562 C 2.714844 -20.128906 2.675781 -22.246094 2.625 -24.199219 C 3.085938 -24.175781 3.640625 -24.128906 4.285156 -24.066406 C 4.925781 -24 5.648438 -23.96875 6.445312 -23.96875 C 7.296875 -23.96875 8.027344 -24 8.644531 -24.066406 C 9.261719 -24.128906 9.804688 -24.175781 10.265625 -24.199219 C 10.265625 -23.25 10.261719 -22.039062 10.246094 -20.574219 C 10.234375 -19.105469 10.222656 -17.535156 10.210938 -15.863281 C 10.195312 -14.191406 10.191406 -12.582031 10.191406 -11.039062 C 10.191406 -9.777344 10.195312 -8.480469 10.210938 -7.140625 C 10.222656 -5.800781 10.234375 -4.515625 10.246094 -3.28125 C 10.261719 -2.046875 10.265625 -0.953125 10.265625 0 Z M 2.625 0 "/></g></g></g><g fill="#ffffff" fill-opacity="1"><g transform="translate(252.434219, 78.206523)"><g><path d="M 9.457031 -22.269531 C 9.457031 -21.910156 9.507812 -21.578125 9.609375 -21.269531 L 16.945312 -21.269531 L 16.675781 -16.09375 L 11 -16.171875 L 10.960938 -9.226562 C 10.960938 -7.785156 10.976562 -6.277344 11 -4.710938 C 11.027344 -3.140625 11.066406 -1.570312 11.117188 0 L 3.433594 0 C 3.488281 -1.59375 3.519531 -3.125 3.53125 -4.59375 C 3.542969 -6.058594 3.550781 -7.578125 3.550781 -9.148438 L 3.550781 -16.171875 L 0.539062 -16.09375 L 0.539062 -21.269531 L 4.128906 -21.269531 C 3.640625 -21.652344 3.25 -22.15625 2.953125 -22.773438 C 2.65625 -23.390625 2.507812 -24.199219 2.507812 -25.203125 C 2.507812 -26.441406 2.902344 -27.480469 3.6875 -28.332031 C 4.472656 -29.179688 5.550781 -29.816406 6.929688 -30.242188 C 8.304688 -30.667969 9.882812 -30.878906 11.65625 -30.878906 C 12.582031 -30.878906 13.574219 -30.832031 14.628906 -30.742188 C 15.683594 -30.652344 16.558594 -30.53125 17.253906 -30.375 L 16.90625 -24.664062 C 16.496094 -24.792969 16.0625 -24.902344 15.613281 -24.992188 C 15.164062 -25.082031 14.691406 -25.128906 14.203125 -25.128906 C 12.867188 -25.128906 11.742188 -24.894531 10.828125 -24.433594 C 9.914062 -23.96875 9.457031 -23.25 9.457031 -22.269531 Z M 9.457031 -22.269531 "/></g></g></g><g fill="#ffffff" fill-opacity="1"><g transform="translate(267.987055, 78.206523)"><g><path d="M 6.445312 -26.132812 C 4.722656 -26.132812 3.523438 -26.367188 2.855469 -26.84375 C 2.1875 -27.320312 1.851562 -28.046875 1.851562 -29.027344 C 1.851562 -30.03125 2.1875 -30.777344 2.855469 -31.265625 C 3.523438 -31.753906 4.722656 -31.996094 6.445312 -31.996094 C 8.171875 -31.996094 9.367188 -31.753906 10.035156 -31.265625 C 10.703125 -30.777344 11.039062 -30.03125 11.039062 -29.027344 C 11.039062 -28.046875 10.703125 -27.320312 10.035156 -26.84375 C 9.367188 -26.367188 8.171875 -26.132812 6.445312 -26.132812 Z M 2.625 0 C 2.675781 -1.980469 2.714844 -3.871094 2.742188 -5.675781 C 2.765625 -7.476562 2.777344 -9.261719 2.777344 -11.039062 C 2.777344 -13.304688 2.765625 -15.574219 2.742188 -17.851562 C 2.714844 -20.128906 2.675781 -22.246094 2.625 -24.199219 C 3.085938 -24.175781 3.640625 -24.128906 4.285156 -24.066406 C 4.925781 -24 5.648438 -23.96875 6.445312 -23.96875 C 7.296875 -23.96875 8.027344 -24 8.644531 -24.066406 C 9.261719 -24.128906 9.804688 -24.175781 10.265625 -24.199219 C 10.265625 -23.25 10.261719 -22.039062 10.246094 -20.574219 C 10.234375 -19.105469 10.222656 -17.535156 10.210938 -15.863281 C 10.195312 -14.191406 10.191406 -12.582031 10.191406 -11.039062 C 10.191406 -9.777344 10.195312 -8.480469 10.210938 -7.140625 C 10.222656 -5.800781 10.234375 -4.515625 10.246094 -3.28125 C 10.261719 -2.046875 10.265625 -0.953125 10.265625 0 Z M 2.625 0 "/></g></g></g><g fill="#ffffff" fill-opacity="1"><g transform="translate(278.677046, 78.206523)"><g><path d="M 13.703125 0.464844 C 9.972656 0.464844 7.03125 -0.605469 4.882812 -2.742188 C 2.734375 -4.875 1.660156 -8.117188 1.660156 -12.46875 C 1.660156 -16.6875 2.726562 -19.917969 4.863281 -22.15625 C 7 -24.394531 10.191406 -25.511719 14.4375 -25.511719 C 18.089844 -25.511719 20.835938 -24.691406 22.675781 -23.042969 C 24.515625 -21.394531 25.640625 -18.808594 26.054688 -15.285156 L 18.835938 -14.667969 C 18.296875 -18.347656 16.636719 -20.1875 13.855469 -20.1875 C 12.363281 -20.1875 11.089844 -19.683594 10.035156 -18.679688 C 9.726562 -17.703125 9.5 -16.738281 9.359375 -15.785156 C 9.21875 -14.835938 9.148438 -13.714844 9.148438 -12.429688 C 9.148438 -10.242188 9.578125 -8.445312 10.441406 -7.042969 C 11.304688 -5.640625 12.632812 -4.941406 14.4375 -4.941406 C 15.027344 -4.941406 15.632812 -5.03125 16.25 -5.210938 C 16.867188 -5.390625 17.382812 -5.648438 17.792969 -5.984375 C 18.078125 -6.625 18.300781 -7.261719 18.46875 -7.894531 C 18.636719 -8.523438 18.773438 -9.226562 18.875 -9.996094 L 26.09375 -9.996094 C 25.757812 -6.472656 24.632812 -3.847656 22.714844 -2.121094 C 20.796875 -0.398438 17.792969 0.464844 13.703125 0.464844 Z M 13.703125 0.464844 "/></g></g></g><g fill="#ff9800" fill-opacity="1"><g transform="translate(145.971349, 106.286184)"><g><path d="M 12.257812 0.414062 C 8.921875 0.414062 6.289062 -0.539062 4.367188 -2.453125 C 2.445312 -4.363281 1.484375 -7.261719 1.484375 -11.152344 C 1.484375 -14.929688 2.441406 -17.816406 4.351562 -19.820312 C 6.261719 -21.824219 9.117188 -22.824219 12.914062 -22.824219 C 16.183594 -22.824219 18.640625 -22.089844 20.289062 -20.617188 C 21.933594 -19.140625 22.941406 -16.828125 23.308594 -13.675781 L 16.851562 -13.121094 C 16.367188 -16.414062 14.882812 -18.058594 12.398438 -18.058594 C 11.0625 -18.058594 9.921875 -17.609375 8.976562 -16.714844 C 8.703125 -15.839844 8.5 -14.976562 8.375 -14.125 C 8.246094 -13.273438 8.183594 -12.269531 8.183594 -11.117188 C 8.183594 -9.164062 8.570312 -7.554688 9.339844 -6.300781 C 10.113281 -5.046875 11.304688 -4.421875 12.914062 -4.421875 C 13.445312 -4.421875 13.984375 -4.5 14.539062 -4.660156 C 15.089844 -4.824219 15.550781 -5.054688 15.917969 -5.351562 C 16.171875 -5.929688 16.375 -6.496094 16.523438 -7.0625 C 16.671875 -7.625 16.792969 -8.253906 16.886719 -8.945312 L 23.34375 -8.945312 C 23.042969 -5.789062 22.035156 -3.441406 20.320312 -1.898438 C 18.605469 -0.355469 15.917969 0.414062 12.257812 0.414062 Z M 12.257812 0.414062 "/></g></g></g><g fill="#ff9800" fill-opacity="1"><g transform="translate(168.76066, 106.286184)"><g><path d="M 8.253906 0.484375 C 6.917969 0.484375 5.742188 0.246094 4.730469 -0.222656 C 3.71875 -0.695312 2.921875 -1.363281 2.347656 -2.226562 C 1.773438 -3.089844 1.484375 -4.097656 1.484375 -5.25 C 1.484375 -7.367188 2.371094 -8.996094 4.144531 -10.136719 C 5.917969 -11.273438 8.402344 -11.84375 11.601562 -11.84375 C 12.292969 -11.84375 13.023438 -11.828125 13.796875 -11.792969 C 14.566406 -11.757812 15.414062 -11.71875 16.332031 -11.671875 L 16.332031 -12.191406 C 16.332031 -13.226562 16.21875 -14.175781 15.988281 -15.039062 C 15.757812 -15.902344 15.316406 -16.59375 14.660156 -17.109375 C 14.003906 -17.628906 13.007812 -17.886719 11.671875 -17.886719 C 10.820312 -17.75 10.105469 -17.4375 9.53125 -16.953125 C 8.957031 -15.988281 8.5625 -14.652344 8.355469 -12.949219 L 1.933594 -13.882812 C 2.277344 -16.875 3.394531 -19.117188 5.285156 -20.617188 C 7.171875 -22.113281 9.679688 -22.859375 12.8125 -22.859375 C 15.273438 -22.859375 17.25 -22.453125 18.734375 -21.632812 C 20.21875 -20.816406 21.289062 -19.632812 21.945312 -18.078125 C 22.601562 -16.523438 22.929688 -14.628906 22.929688 -12.398438 C 22.929688 -10.992188 22.933594 -9.796875 22.945312 -8.804688 C 22.957031 -7.816406 22.964844 -6.792969 22.964844 -5.730469 C 22.988281 -4.535156 22.996094 -3.46875 22.996094 -2.539062 C 22.996094 -1.605469 22.996094 -0.757812 22.996094 0 L 16.265625 0 L 16.78125 -5.285156 L 16.332031 -5.285156 C 15.964844 -4.292969 15.429688 -3.355469 14.726562 -2.46875 C 14.027344 -1.582031 13.144531 -0.867188 12.085938 -0.328125 C 11.027344 0.214844 9.75 0.484375 8.253906 0.484375 Z M 10.636719 -4.488281 C 11.394531 -4.488281 12.097656 -4.640625 12.742188 -4.9375 C 13.386719 -5.238281 13.957031 -5.59375 14.453125 -6.007812 C 14.945312 -6.421875 15.359375 -6.832031 15.695312 -7.234375 C 16.027344 -7.636719 16.253906 -7.941406 16.367188 -8.148438 L 16.367188 -9.21875 C 16.046875 -9.242188 15.632812 -9.261719 15.125 -9.273438 C 14.617188 -9.285156 14.203125 -9.289062 13.882812 -9.289062 C 13.007812 -9.289062 12.109375 -9.230469 11.1875 -9.117188 C 10.265625 -9 9.5 -8.757812 8.890625 -8.390625 C 8.28125 -8.023438 7.976562 -7.4375 7.976562 -6.628906 C 7.976562 -5.847656 8.222656 -5.292969 8.71875 -4.972656 C 9.214844 -4.648438 9.851562 -4.488281 10.636719 -4.488281 Z M 10.636719 -4.488281 "/></g></g></g><g fill="#ff9800" fill-opacity="1"><g transform="translate(191.757146, 106.286184)"><g><path d="M 2.140625 0 C 2.1875 -2.050781 2.214844 -4.035156 2.226562 -5.957031 C 2.238281 -7.878906 2.246094 -9.773438 2.246094 -11.636719 C 2.246094 -13.203125 2.238281 -14.820312 2.226562 -16.488281 C 2.214844 -18.15625 2.203125 -19.804688 2.191406 -21.425781 C 2.179688 -23.050781 2.164062 -24.550781 2.140625 -25.933594 L 8.945312 -26.554688 C 8.945312 -25.796875 8.9375 -24.824219 8.925781 -23.636719 C 8.914062 -22.453125 8.902344 -21.160156 8.890625 -19.769531 C 8.878906 -18.375 8.875 -16.976562 8.875 -15.574219 C 8.875 -14.167969 8.875 -12.855469 8.875 -11.636719 C 8.875 -10.324219 8.878906 -8.960938 8.890625 -7.546875 C 8.902344 -6.128906 8.914062 -4.769531 8.925781 -3.46875 C 8.9375 -2.167969 8.945312 -1.011719 8.945312 0 Z M 2.140625 0 "/></g></g></g><g fill="#ff9800" fill-opacity="1"><g transform="translate(200.838218, 106.286184)"><g><path d="M 12.257812 0.414062 C 8.921875 0.414062 6.289062 -0.539062 4.367188 -2.453125 C 2.445312 -4.363281 1.484375 -7.261719 1.484375 -11.152344 C 1.484375 -14.929688 2.441406 -17.816406 4.351562 -19.820312 C 6.261719 -21.824219 9.117188 -22.824219 12.914062 -22.824219 C 16.183594 -22.824219 18.640625 -22.089844 20.289062 -20.617188 C 21.933594 -19.140625 22.941406 -16.828125 23.308594 -13.675781 L 16.851562 -13.121094 C 16.367188 -16.414062 14.882812 -18.058594 12.398438 -18.058594 C 11.0625 -18.058594 9.921875 -17.609375 8.976562 -16.714844 C 8.703125 -15.839844 8.5 -14.976562 8.375 -14.125 C 8.246094 -13.273438 8.183594 -12.269531 8.183594 -11.117188 C 8.183594 -9.164062 8.570312 -7.554688 9.339844 -6.300781 C 10.113281 -5.046875 11.304688 -4.421875 12.914062 -4.421875 C 13.445312 -4.421875 13.984375 -4.5 14.539062 -4.660156 C 15.089844 -4.824219 15.550781 -5.054688 15.917969 -5.351562 C 16.171875 -5.929688 16.375 -6.496094 16.523438 -7.0625 C 16.671875 -7.625 16.792969 -8.253906 16.886719 -8.945312 L 23.34375 -8.945312 C 23.042969 -5.789062 22.035156 -3.441406 20.320312 -1.898438 C 18.605469 -0.355469 15.917969 0.414062 12.257812 0.414062 Z M 12.257812 0.414062 "/></g></g></g><g fill="#ff9800" fill-opacity="1"><g transform="translate(223.627529, 106.286184)"><g><path d="M 23.414062 -22.34375 C 23.320312 -20.59375 23.269531 -18.785156 23.257812 -16.921875 C 23.246094 -15.054688 23.238281 -13.144531 23.238281 -11.1875 C 23.238281 -9.484375 23.246094 -7.636719 23.257812 -5.644531 C 23.269531 -3.65625 23.308594 -1.773438 23.378906 0 L 16.507812 0 L 17.164062 -4.765625 L 16.746094 -4.765625 C 16.332031 -3.777344 15.730469 -2.882812 14.933594 -2.089844 C 14.140625 -1.296875 13.21875 -0.667969 12.171875 -0.207031 C 11.125 0.253906 10.003906 0.484375 8.804688 0.484375 C 7.125 0.484375 5.796875 0.125 4.816406 -0.585938 C 3.839844 -1.300781 3.140625 -2.335938 2.726562 -3.695312 C 2.3125 -5.054688 2.082031 -6.699219 2.039062 -8.632812 C 2.015625 -9.183594 2.003906 -9.9375 2.003906 -10.894531 C 2.003906 -11.851562 1.996094 -12.898438 1.984375 -14.035156 C 1.972656 -15.175781 1.960938 -16.300781 1.949219 -17.402344 C 1.941406 -18.507812 1.929688 -19.503906 1.917969 -20.390625 C 1.90625 -21.277344 1.886719 -21.925781 1.863281 -22.34375 L 8.667969 -22.34375 C 8.644531 -20.914062 8.621094 -19.699219 8.597656 -18.699219 C 8.574219 -17.699219 8.5625 -16.792969 8.5625 -15.988281 C 8.5625 -15.183594 8.5625 -14.371094 8.5625 -13.554688 C 8.5625 -12.738281 8.5625 -11.808594 8.5625 -10.773438 C 8.5625 -9.785156 8.65625 -8.839844 8.839844 -7.941406 C 9.023438 -7.042969 9.359375 -6.3125 9.839844 -5.75 C 10.324219 -5.183594 11.015625 -4.902344 11.914062 -4.902344 C 12.464844 -4.902344 13.046875 -5.082031 13.65625 -5.4375 C 14.265625 -5.796875 14.832031 -6.261719 15.347656 -6.835938 C 15.867188 -7.414062 16.265625 -8.011719 16.539062 -8.632812 C 16.585938 -9.230469 16.617188 -9.824219 16.625 -10.410156 C 16.636719 -11 16.644531 -11.554688 16.644531 -12.085938 C 16.644531 -13.972656 16.636719 -15.734375 16.625 -17.371094 C 16.617188 -19.003906 16.574219 -20.660156 16.507812 -22.34375 Z M 23.414062 -22.34375 "/></g></g></g><g fill="#ff9800" fill-opacity="1"><g transform="translate(247.418198, 106.286184)"><g><path d="M 2.140625 0 C 2.1875 -2.050781 2.214844 -4.035156 2.226562 -5.957031 C 2.238281 -7.878906 2.246094 -9.773438 2.246094 -11.636719 C 2.246094 -13.203125 2.238281 -14.820312 2.226562 -16.488281 C 2.214844 -18.15625 2.203125 -19.804688 2.191406 -21.425781 C 2.179688 -23.050781 2.164062 -24.550781 2.140625 -25.933594 L 8.945312 -26.554688 C 8.945312 -25.796875 8.9375 -24.824219 8.925781 -23.636719 C 8.914062 -22.453125 8.902344 -21.160156 8.890625 -19.769531 C 8.878906 -18.375 8.875 -16.976562 8.875 -15.574219 C 8.875 -14.167969 8.875 -12.855469 8.875 -11.636719 C 8.875 -10.324219 8.878906 -8.960938 8.890625 -7.546875 C 8.902344 -6.128906 8.914062 -4.769531 8.925781 -3.46875 C 8.9375 -2.167969 8.945312 -1.011719 8.945312 0 Z M 2.140625 0 "/></g></g></g><g fill="#ff9800" fill-opacity="1"><g transform="translate(256.49927, 106.286184)"><g><path d="M 8.253906 0.484375 C 6.917969 0.484375 5.742188 0.246094 4.730469 -0.222656 C 3.71875 -0.695312 2.921875 -1.363281 2.347656 -2.226562 C 1.773438 -3.089844 1.484375 -4.097656 1.484375 -5.25 C 1.484375 -7.367188 2.371094 -8.996094 4.144531 -10.136719 C 5.917969 -11.273438 8.402344 -11.84375 11.601562 -11.84375 C 12.292969 -11.84375 13.023438 -11.828125 13.796875 -11.792969 C 14.566406 -11.757812 15.414062 -11.71875 16.332031 -11.671875 L 16.332031 -12.191406 C 16.332031 -13.226562 16.21875 -14.175781 15.988281 -15.039062 C 15.757812 -15.902344 15.316406 -16.59375 14.660156 -17.109375 C 14.003906 -17.628906 13.007812 -17.886719 11.671875 -17.886719 C 10.820312 -17.75 10.105469 -17.4375 9.53125 -16.953125 C 8.957031 -15.988281 8.5625 -14.652344 8.355469 -12.949219 L 1.933594 -13.882812 C 2.277344 -16.875 3.394531 -19.117188 5.285156 -20.617188 C 7.171875 -22.113281 9.679688 -22.859375 12.8125 -22.859375 C 15.273438 -22.859375 17.25 -22.453125 18.734375 -21.632812 C 20.21875 -20.816406 21.289062 -19.632812 21.945312 -18.078125 C 22.601562 -16.523438 22.929688 -14.628906 22.929688 -12.398438 C 22.929688 -10.992188 22.933594 -9.796875 22.945312 -8.804688 C 22.957031 -7.816406 22.964844 -6.792969 22.964844 -5.730469 C 22.988281 -4.535156 22.996094 -3.46875 22.996094 -2.539062 C 22.996094 -1.605469 22.996094 -0.757812 22.996094 0 L 16.265625 0 L 16.78125 -5.285156 L 16.332031 -5.285156 C 15.964844 -4.292969 15.429688 -3.355469 14.726562 -2.46875 C 14.027344 -1.582031 13.144531 -0.867188 12.085938 -0.328125 C 11.027344 0.214844 9.75 0.484375 8.253906 0.484375 Z M 10.636719 -4.488281 C 11.394531 -4.488281 12.097656 -4.640625 12.742188 -4.9375 C 13.386719 -5.238281 13.957031 -5.59375 14.453125 -6.007812 C 14.945312 -6.421875 15.359375 -6.832031 15.695312 -7.234375 C 16.027344 -7.636719 16.253906 -7.941406 16.367188 -8.148438 L 16.367188 -9.21875 C 16.046875 -9.242188 15.632812 -9.261719 15.125 -9.273438 C 14.617188 -9.285156 14.203125 -9.289062 13.882812 -9.289062 C 13.007812 -9.289062 12.109375 -9.230469 11.1875 -9.117188 C 10.265625 -9 9.5 -8.757812 8.890625 -8.390625 C 8.28125 -8.023438 7.976562 -7.4375 7.976562 -6.628906 C 7.976562 -5.847656 8.222656 -5.292969 8.71875 -4.972656 C 9.214844 -4.648438 9.851562 -4.488281 10.636719 -4.488281 Z M 10.636719 -4.488281 "/></g></g></g><g fill="#ff9800" fill-opacity="1"><g transform="translate(279.495757, 106.286184)"><g><path d="M 11.085938 0.3125 C 8.898438 0.3125 7.246094 -0.0585938 6.128906 -0.792969 C 5.011719 -1.53125 4.257812 -2.640625 3.867188 -4.125 C 3.476562 -5.613281 3.28125 -7.449219 3.28125 -9.632812 L 3.28125 -17.609375 L 0.34375 -17.472656 L 0.34375 -22.410156 L 3.210938 -22.308594 C 3.210938 -23.113281 3.207031 -23.832031 3.195312 -24.464844 C 3.183594 -25.097656 3.175781 -25.773438 3.175781 -26.484375 C 4.328125 -26.484375 5.480469 -26.507812 6.628906 -26.554688 C 7.78125 -26.601562 8.933594 -26.660156 10.082031 -26.726562 C 10.058594 -25.804688 10.046875 -25.023438 10.046875 -24.378906 C 10.046875 -23.734375 10.039062 -23.042969 10.015625 -22.308594 C 10.496094 -22.308594 11.097656 -22.3125 11.808594 -22.324219 C 12.523438 -22.335938 13.25 -22.351562 13.984375 -22.375 C 14.722656 -22.398438 15.355469 -22.410156 15.882812 -22.410156 C 15.863281 -21.996094 15.832031 -21.59375 15.796875 -21.203125 C 15.761719 -20.8125 15.746094 -20.398438 15.746094 -19.960938 C 15.746094 -19.566406 15.734375 -19.171875 15.710938 -18.769531 C 15.6875 -18.363281 15.675781 -17.933594 15.675781 -17.472656 L 9.980469 -17.609375 C 9.980469 -16.757812 9.980469 -15.808594 9.980469 -14.761719 C 9.980469 -13.714844 9.980469 -12.683594 9.980469 -11.671875 C 9.980469 -10.660156 9.980469 -9.75 9.980469 -8.945312 C 9.980469 -7.816406 10.078125 -6.835938 10.273438 -6.007812 C 10.46875 -5.179688 10.910156 -4.765625 11.601562 -4.765625 C 12.269531 -4.765625 12.996094 -4.804688 13.777344 -4.886719 C 14.5625 -4.964844 15.21875 -5.054688 15.746094 -5.144531 C 15.746094 -4.777344 15.730469 -4.277344 15.695312 -3.644531 C 15.660156 -3.011719 15.632812 -2.375 15.609375 -1.742188 C 15.585938 -1.109375 15.574219 -0.585938 15.574219 -0.171875 C 14.929688 -0.0351562 14.214844 0.0820312 13.433594 0.171875 C 12.648438 0.265625 11.867188 0.3125 11.085938 0.3125 Z M 11.085938 0.3125 "/></g></g></g><g fill="#ff9800" fill-opacity="1"><g transform="translate(294.136087, 106.286184)"><g><path d="M 12.671875 0.414062 C 9.058594 0.414062 6.289062 -0.570312 4.367188 -2.539062 C 2.445312 -4.507812 1.484375 -7.367188 1.484375 -11.117188 C 1.484375 -14.894531 2.445312 -17.789062 4.367188 -19.804688 C 6.289062 -21.816406 9.058594 -22.824219 12.671875 -22.824219 C 16.378906 -22.824219 19.214844 -21.824219 21.183594 -19.820312 C 23.152344 -17.816406 24.136719 -14.929688 24.136719 -11.152344 C 24.136719 -7.402344 23.152344 -4.535156 21.183594 -2.554688 C 19.214844 -0.574219 16.378906 0.414062 12.671875 0.414062 Z M 13.261719 -4.351562 C 13.8125 -4.351562 14.347656 -4.429688 14.867188 -4.59375 C 15.382812 -4.753906 15.828125 -4.996094 16.195312 -5.316406 C 16.585938 -6.078125 16.890625 -6.945312 17.109375 -7.925781 C 17.328125 -8.902344 17.4375 -9.992188 17.4375 -11.1875 C 17.4375 -13.351562 17 -15.039062 16.125 -16.246094 C 15.25 -17.457031 13.972656 -18.058594 12.292969 -18.058594 C 10.957031 -18.058594 9.875 -17.589844 9.046875 -16.644531 C 8.769531 -15.882812 8.558594 -15.054688 8.410156 -14.15625 C 8.257812 -13.261719 8.183594 -12.269531 8.183594 -11.1875 C 8.183594 -9.023438 8.609375 -7.34375 9.460938 -6.148438 C 10.3125 -4.949219 11.578125 -4.351562 13.261719 -4.351562 Z M 13.261719 -4.351562 "/></g></g></g><g fill="#ff9800" fill-opacity="1"><g transform="translate(317.719571, 106.286184)"><g><path d="M 16.574219 -22.789062 C 18.027344 -22.789062 19.171875 -22.421875 20.011719 -21.6875 C 20.851562 -20.949219 21.472656 -19.820312 21.875 -18.300781 C 22.277344 -16.78125 22.550781 -14.835938 22.6875 -12.464844 L 16.058594 -11.742188 C 16.058594 -13.605469 15.855469 -15.003906 15.453125 -15.9375 C 15.050781 -16.867188 14.34375 -17.335938 13.328125 -17.335938 C 12.59375 -17.335938 11.863281 -17.046875 11.136719 -16.472656 C 10.410156 -15.894531 9.761719 -15.160156 9.183594 -14.261719 L 9.21875 -14.191406 C 9.195312 -13.480469 9.175781 -12.933594 9.152344 -12.550781 C 9.128906 -12.171875 9.109375 -11.863281 9.097656 -11.621094 C 9.085938 -11.378906 9.082031 -11.097656 9.082031 -10.773438 C 9.082031 -8.816406 9.085938 -6.964844 9.097656 -5.214844 C 9.109375 -3.464844 9.152344 -1.726562 9.21875 0 L 2.347656 0 C 2.417969 -1.75 2.457031 -3.558594 2.46875 -5.421875 C 2.480469 -7.285156 2.484375 -9.195312 2.484375 -11.152344 C 2.484375 -13.0625 2.480469 -14.96875 2.46875 -16.867188 C 2.457031 -18.769531 2.429688 -20.59375 2.382812 -22.34375 L 9.21875 -22.34375 L 8.527344 -17.578125 L 8.945312 -17.542969 C 9.679688 -19.292969 10.75 -20.605469 12.15625 -21.480469 C 13.558594 -22.351562 15.03125 -22.789062 16.574219 -22.789062 Z M 16.574219 -22.789062 "/></g></g></g><g fill="#ffffff" fill-opacity="1"><g transform="translate(843.237834, 459.542347)"><g><path d="M 0.96875 0 L 0.96875 -9.84375 L 3.609375 -9.84375 L 5.703125 -3.835938 L 6.046875 -2.472656 L 6.40625 -3.835938 L 8.496094 -9.84375 L 11.136719 -9.84375 L 11.136719 0 L 9.203125 0 L 9.203125 -6.277344 L 9.238281 -7.449219 L 8.875 -6.289062 L 6.769531 0 L 5.195312 0 L 3.101562 -6.277344 L 2.730469 -7.464844 L 2.761719 -6.28125 L 2.761719 0 Z M 0.96875 0 "/></g></g></g><g fill="#ffffff" fill-opacity="1"><g transform="translate(855.336535, 459.542347)"><g><path d="M 0.914062 0 L 0.914062 -7.050781 L 2.308594 -7.050781 L 2.703125 -5.449219 C 2.792969 -5.78125 2.949219 -6.082031 3.164062 -6.359375 C 3.382812 -6.632812 3.648438 -6.851562 3.960938 -7.019531 C 4.277344 -7.183594 4.613281 -7.265625 4.976562 -7.265625 C 5.445312 -7.265625 5.828125 -7.191406 6.132812 -7.042969 C 6.433594 -6.894531 6.667969 -6.695312 6.839844 -6.449219 C 7.007812 -6.199219 7.128906 -5.921875 7.195312 -5.617188 C 7.265625 -5.308594 7.296875 -4.996094 7.289062 -4.675781 C 7.28125 -4.351562 7.253906 -4.046875 7.203125 -3.761719 L 5.644531 -3.609375 C 5.65625 -3.894531 5.660156 -4.164062 5.648438 -4.425781 C 5.640625 -4.6875 5.601562 -4.921875 5.53125 -5.128906 C 5.457031 -5.332031 5.339844 -5.496094 5.171875 -5.617188 C 5.003906 -5.734375 4.769531 -5.792969 4.460938 -5.792969 C 4.175781 -5.792969 3.933594 -5.71875 3.734375 -5.570312 C 3.535156 -5.421875 3.375 -5.226562 3.246094 -4.984375 C 3.121094 -4.742188 3.027344 -4.476562 2.96875 -4.1875 C 2.910156 -3.902344 2.878906 -3.621094 2.878906 -3.347656 L 2.878906 0 Z M 0.914062 0 "/></g></g></g><g fill="#ffffff" fill-opacity="1"><g transform="translate(862.777134, 459.542347)"><g><path d="M 0.734375 -2.207031 L 2.679688 -2.207031 L 2.679688 0 L 0.734375 0 Z M 0.734375 -2.207031 "/></g></g></g><g fill="#ffffff" fill-opacity="1"><g transform="translate(866.191702, 459.542347)"><g/></g></g><g fill="#ffffff" fill-opacity="1"><g transform="translate(869.5994, 459.542347)"><g><path d="M 4.316406 0.269531 C 3.804688 0.269531 3.320312 0.203125 2.867188 0.078125 C 2.414062 -0.046875 2.007812 -0.234375 1.648438 -0.484375 C 1.292969 -0.734375 1 -1.042969 0.769531 -1.410156 C 0.539062 -1.777344 0.390625 -2.203125 0.324219 -2.6875 L 1.953125 -3.273438 L 1.988281 -3.257812 C 2.054688 -2.832031 2.195312 -2.484375 2.402344 -2.214844 C 2.609375 -1.941406 2.875 -1.746094 3.199219 -1.617188 C 3.523438 -1.492188 3.886719 -1.429688 4.289062 -1.429688 C 4.703125 -1.429688 5.027344 -1.492188 5.273438 -1.613281 C 5.515625 -1.734375 5.691406 -1.890625 5.796875 -2.078125 C 5.90625 -2.269531 5.960938 -2.464844 5.960938 -2.660156 C 5.960938 -2.929688 5.894531 -3.148438 5.761719 -3.3125 C 5.632812 -3.476562 5.445312 -3.621094 5.195312 -3.746094 C 4.949219 -3.871094 4.644531 -4 4.28125 -4.136719 L 3.039062 -4.53125 C 2.28125 -4.785156 1.695312 -5.140625 1.273438 -5.589844 C 0.855469 -6.042969 0.644531 -6.628906 0.644531 -7.347656 C 0.644531 -7.953125 0.792969 -8.457031 1.089844 -8.867188 C 1.386719 -9.273438 1.796875 -9.582031 2.328125 -9.789062 C 2.855469 -9.992188 3.472656 -10.097656 4.171875 -10.097656 C 4.894531 -10.097656 5.507812 -9.984375 6.011719 -9.757812 C 6.511719 -9.53125 6.914062 -9.203125 7.21875 -8.777344 C 7.523438 -8.351562 7.742188 -7.839844 7.871094 -7.246094 L 6.226562 -6.75 L 6.179688 -6.769531 C 6.125 -7.125 6.027344 -7.410156 5.886719 -7.628906 C 5.746094 -7.847656 5.585938 -8.015625 5.398438 -8.132812 C 5.214844 -8.246094 5.019531 -8.324219 4.816406 -8.363281 C 4.617188 -8.40625 4.429688 -8.425781 4.253906 -8.425781 C 3.875 -8.425781 3.566406 -8.371094 3.328125 -8.261719 C 3.089844 -8.152344 2.914062 -8.011719 2.808594 -7.847656 C 2.699219 -7.679688 2.644531 -7.507812 2.644531 -7.335938 C 2.644531 -7.082031 2.710938 -6.875 2.835938 -6.71875 C 2.960938 -6.5625 3.125 -6.429688 3.332031 -6.328125 C 3.535156 -6.222656 3.753906 -6.125 3.988281 -6.035156 L 5.265625 -5.675781 C 5.71875 -5.511719 6.117188 -5.339844 6.460938 -5.160156 C 6.804688 -4.984375 7.089844 -4.78125 7.320312 -4.558594 C 7.550781 -4.332031 7.722656 -4.070312 7.839844 -3.773438 C 7.957031 -3.476562 8.015625 -3.121094 8.015625 -2.714844 C 8.015625 -2.285156 7.929688 -1.886719 7.761719 -1.527344 C 7.589844 -1.164062 7.347656 -0.847656 7.027344 -0.582031 C 6.710938 -0.3125 6.324219 -0.105469 5.867188 0.0429688 C 5.410156 0.195312 4.894531 0.269531 4.316406 0.269531 Z M 4.316406 0.269531 "/></g></g></g><g fill="#ffffff" fill-opacity="1"><g transform="translate(878.008719, 459.542347)"><g><path d="M 4.019531 0.214844 C 3.394531 0.214844 2.847656 0.121094 2.386719 -0.0625 C 1.929688 -0.246094 1.546875 -0.503906 1.25 -0.839844 C 0.953125 -1.171875 0.730469 -1.570312 0.585938 -2.03125 C 0.4375 -2.492188 0.363281 -3 0.363281 -3.554688 C 0.363281 -4.300781 0.492188 -4.953125 0.753906 -5.507812 C 1.011719 -6.066406 1.40625 -6.496094 1.929688 -6.804688 C 2.457031 -7.113281 3.125 -7.265625 3.929688 -7.265625 C 4.65625 -7.265625 5.269531 -7.121094 5.769531 -6.828125 C 6.273438 -6.539062 6.652344 -6.125 6.910156 -5.589844 C 7.171875 -5.050781 7.300781 -4.410156 7.300781 -3.664062 L 7.304688 -2.996094 L 2.234375 -2.996094 C 2.246094 -2.5625 2.332031 -2.210938 2.484375 -1.945312 C 2.636719 -1.679688 2.851562 -1.484375 3.121094 -1.363281 C 3.390625 -1.242188 3.703125 -1.183594 4.0625 -1.183594 C 4.441406 -1.183594 4.777344 -1.273438 5.0625 -1.460938 C 5.347656 -1.644531 5.5625 -1.953125 5.703125 -2.386719 L 5.765625 -2.398438 L 7.140625 -1.902344 C 6.953125 -1.480469 6.71875 -1.113281 6.433594 -0.792969 C 6.148438 -0.476562 5.808594 -0.226562 5.414062 -0.0507812 C 5.015625 0.125 4.550781 0.214844 4.019531 0.214844 Z M 2.246094 -4.207031 L 5.449219 -4.207031 C 5.421875 -5.375 4.90625 -5.960938 3.898438 -5.960938 C 3.410156 -5.960938 3.023438 -5.800781 2.730469 -5.488281 C 2.441406 -5.175781 2.28125 -4.746094 2.246094 -4.207031 Z M 2.246094 -4.207031 "/></g></g></g><g fill="#ffffff" fill-opacity="1"><g transform="translate(885.634817, 459.542347)"><g><path d="M 2.1875 2.585938 C 1.910156 2.585938 1.652344 2.542969 1.414062 2.460938 C 1.171875 2.378906 0.957031 2.277344 0.773438 2.160156 C 0.585938 2.039062 0.4375 1.929688 0.324219 1.828125 L 0.785156 0.84375 C 0.917969 0.917969 1.070312 0.988281 1.25 1.054688 C 1.429688 1.121094 1.621094 1.15625 1.828125 1.15625 C 2.066406 1.15625 2.269531 1.082031 2.441406 0.941406 C 2.609375 0.800781 2.746094 0.574219 2.851562 0.269531 L 2.941406 0 L -0.015625 -7.050781 L 2.109375 -7.050781 L 3.816406 -1.765625 L 5.421875 -7.050781 L 7.445312 -7.050781 L 4.714844 0.199219 C 4.492188 0.773438 4.253906 1.234375 4.011719 1.585938 C 3.765625 1.933594 3.496094 2.1875 3.199219 2.347656 C 2.902344 2.503906 2.566406 2.585938 2.1875 2.585938 Z M 2.1875 2.585938 "/></g></g></g><g fill="#ffffff" fill-opacity="1"><g transform="translate(893.096027, 459.542347)"><g><path d="M 0.886719 -8.035156 L 0.886719 -9.84375 L 2.902344 -9.84375 L 2.902344 -8.035156 Z M 0.914062 0 L 0.914062 -7.050781 L 2.878906 -7.050781 L 2.878906 0 Z M 0.914062 0 "/></g></g></g><g fill="#ffffff" fill-opacity="1"><g transform="translate(833.093259, 87.443285)"><g><path d="M 0.96875 0 L 0.96875 -9.839844 L 4.605469 -9.839844 C 6.179688 -9.839844 7.382812 -9.429688 8.207031 -8.605469 C 9.035156 -7.785156 9.449219 -6.570312 9.449219 -4.96875 C 9.449219 -3.835938 9.257812 -2.90625 8.871094 -2.171875 C 8.488281 -1.4375 7.929688 -0.894531 7.195312 -0.535156 C 6.460938 -0.179688 5.570312 0 4.523438 0 Z M 3.015625 -1.640625 L 4.660156 -1.640625 C 5.292969 -1.640625 5.800781 -1.785156 6.1875 -2.070312 C 6.574219 -2.359375 6.855469 -2.761719 7.03125 -3.285156 C 7.203125 -3.808594 7.292969 -4.421875 7.292969 -5.132812 C 7.292969 -7.171875 6.433594 -8.191406 4.714844 -8.191406 L 3.015625 -8.191406 Z M 3.015625 -1.640625 "/></g></g></g><g fill="#ffffff" fill-opacity="1"><g transform="translate(842.994228, 87.443285)"><g><path d="M 4.019531 0.214844 C 3.390625 0.214844 2.847656 0.121094 2.386719 -0.0625 C 1.925781 -0.246094 1.546875 -0.503906 1.25 -0.839844 C 0.953125 -1.171875 0.730469 -1.570312 0.585938 -2.03125 C 0.4375 -2.492188 0.363281 -3 0.363281 -3.554688 C 0.363281 -4.300781 0.492188 -4.953125 0.753906 -5.507812 C 1.011719 -6.066406 1.402344 -6.496094 1.929688 -6.804688 C 2.457031 -7.109375 3.125 -7.265625 3.929688 -7.265625 C 4.65625 -7.265625 5.265625 -7.117188 5.769531 -6.828125 C 6.269531 -6.535156 6.652344 -6.121094 6.910156 -5.585938 C 7.167969 -5.050781 7.296875 -4.410156 7.296875 -3.664062 L 7.304688 -2.996094 L 2.234375 -2.996094 C 2.246094 -2.5625 2.332031 -2.210938 2.484375 -1.945312 C 2.636719 -1.679688 2.847656 -1.484375 3.121094 -1.363281 C 3.390625 -1.242188 3.703125 -1.183594 4.0625 -1.183594 C 4.441406 -1.183594 4.773438 -1.273438 5.0625 -1.460938 C 5.347656 -1.644531 5.5625 -1.953125 5.703125 -2.382812 L 5.765625 -2.398438 L 7.140625 -1.902344 C 6.953125 -1.480469 6.714844 -1.113281 6.433594 -0.792969 C 6.148438 -0.476562 5.808594 -0.226562 5.410156 -0.0507812 C 5.015625 0.125 4.550781 0.214844 4.019531 0.214844 Z M 2.246094 -4.207031 L 5.449219 -4.207031 C 5.421875 -5.375 4.90625 -5.957031 3.894531 -5.957031 C 3.410156 -5.957031 3.023438 -5.800781 2.730469 -5.488281 C 2.441406 -5.171875 2.277344 -4.746094 2.246094 -4.207031 Z M 2.246094 -4.207031 "/></g></g></g><g fill="#ffffff" fill-opacity="1"><g transform="translate(850.620923, 87.443285)"><g><path d="M 3.601562 0.214844 C 2.707031 0.214844 1.980469 0.0234375 1.417969 -0.351562 C 0.859375 -0.726562 0.523438 -1.292969 0.417969 -2.054688 L 1.9375 -2.410156 C 2.007812 -1.992188 2.175781 -1.664062 2.449219 -1.4375 C 2.722656 -1.207031 3.113281 -1.09375 3.621094 -1.09375 C 4.085938 -1.09375 4.421875 -1.171875 4.636719 -1.328125 C 4.855469 -1.488281 4.960938 -1.699219 4.960938 -1.964844 C 4.960938 -2.117188 4.910156 -2.25 4.808594 -2.367188 C 4.703125 -2.484375 4.523438 -2.59375 4.269531 -2.699219 C 4.015625 -2.800781 3.664062 -2.90625 3.214844 -3.015625 C 2.996094 -3.070312 2.765625 -3.132812 2.523438 -3.203125 C 2.277344 -3.269531 2.042969 -3.355469 1.816406 -3.460938 C 1.589844 -3.5625 1.386719 -3.691406 1.203125 -3.84375 C 1.019531 -4 0.875 -4.1875 0.765625 -4.410156 C 0.660156 -4.636719 0.605469 -4.90625 0.605469 -5.214844 C 0.605469 -5.871094 0.871094 -6.375 1.40625 -6.730469 C 1.9375 -7.085938 2.683594 -7.265625 3.640625 -7.265625 C 4.460938 -7.265625 5.121094 -7.085938 5.617188 -6.730469 C 6.113281 -6.375 6.457031 -5.847656 6.636719 -5.148438 L 5.097656 -4.824219 C 5.007812 -5.230469 4.847656 -5.527344 4.617188 -5.707031 C 4.390625 -5.886719 4.050781 -5.980469 3.601562 -5.980469 C 3.21875 -5.980469 2.9375 -5.910156 2.75 -5.773438 C 2.5625 -5.636719 2.46875 -5.445312 2.46875 -5.210938 C 2.46875 -5.019531 2.527344 -4.871094 2.640625 -4.753906 C 2.757812 -4.640625 2.9375 -4.542969 3.175781 -4.460938 C 3.414062 -4.378906 3.71875 -4.289062 4.089844 -4.199219 C 4.734375 -4.050781 5.261719 -3.878906 5.667969 -3.683594 C 6.078125 -3.488281 6.378906 -3.253906 6.570312 -2.984375 C 6.761719 -2.71875 6.859375 -2.398438 6.859375 -2.027344 C 6.859375 -1.566406 6.730469 -1.164062 6.480469 -0.832031 C 6.226562 -0.496094 5.859375 -0.238281 5.378906 -0.0585938 C 4.894531 0.121094 4.300781 0.214844 3.601562 0.214844 Z M 3.601562 0.214844 "/></g></g></g><g fill="#ffffff" fill-opacity="1"><g transform="translate(857.97966, 87.443285)"><g><path d="M 0.886719 -8.035156 L 0.886719 -9.839844 L 2.898438 -9.839844 L 2.898438 -8.035156 Z M 0.914062 0 L 0.914062 -7.050781 L 2.878906 -7.050781 L 2.878906 0 Z M 0.914062 0 "/></g></g></g><g fill="#ffffff" fill-opacity="1"><g transform="translate(861.779272, 87.443285)"><g><path d="M 4.824219 -1.527344 C 5.824219 -1.460938 6.550781 -1.277344 7.007812 -0.96875 C 7.460938 -0.660156 7.691406 -0.203125 7.691406 0.40625 C 7.691406 0.882812 7.53125 1.289062 7.21875 1.621094 C 6.90625 1.957031 6.46875 2.210938 5.914062 2.386719 C 5.355469 2.5625 4.714844 2.652344 3.984375 2.652344 C 3.214844 2.652344 2.589844 2.578125 2.101562 2.429688 C 1.617188 2.28125 1.257812 2.082031 1.027344 1.839844 C 0.796875 1.59375 0.679688 1.324219 0.679688 1.03125 C 0.679688 0.804688 0.738281 0.601562 0.859375 0.414062 C 0.976562 0.222656 1.136719 0.0625 1.335938 -0.078125 C 1.535156 -0.21875 1.753906 -0.324219 1.992188 -0.390625 C 1.613281 -0.460938 1.3125 -0.554688 1.097656 -0.671875 C 0.878906 -0.792969 0.726562 -0.933594 0.636719 -1.097656 C 0.546875 -1.257812 0.5 -1.441406 0.5 -1.640625 C 0.5 -1.859375 0.554688 -2.042969 0.667969 -2.195312 C 0.777344 -2.347656 0.921875 -2.476562 1.105469 -2.582031 C 1.289062 -2.683594 1.492188 -2.765625 1.710938 -2.820312 C 1.929688 -2.878906 2.152344 -2.917969 2.371094 -2.933594 C 1.96875 -3.148438 1.667969 -3.429688 1.472656 -3.78125 C 1.28125 -4.128906 1.183594 -4.503906 1.183594 -4.914062 C 1.183594 -5.378906 1.296875 -5.789062 1.527344 -6.144531 C 1.761719 -6.496094 2.101562 -6.769531 2.554688 -6.96875 C 3.003906 -7.164062 3.558594 -7.265625 4.210938 -7.265625 C 4.582031 -7.265625 4.921875 -7.234375 5.230469 -7.179688 C 5.378906 -7.164062 5.511719 -7.1875 5.621094 -7.257812 C 5.730469 -7.324219 5.816406 -7.417969 5.878906 -7.539062 C 5.941406 -7.65625 5.972656 -7.785156 5.972656 -7.917969 C 5.972656 -8.050781 5.949219 -8.195312 5.90625 -8.347656 C 5.863281 -8.503906 5.824219 -8.621094 5.785156 -8.691406 L 7.277344 -8.6875 C 7.304688 -8.640625 7.339844 -8.550781 7.382812 -8.421875 C 7.425781 -8.292969 7.449219 -8.144531 7.449219 -7.984375 C 7.449219 -7.792969 7.398438 -7.617188 7.292969 -7.453125 C 7.191406 -7.289062 7.050781 -7.152344 6.871094 -7.042969 C 6.695312 -6.933594 6.488281 -6.859375 6.261719 -6.824219 C 6.625 -6.625 6.902344 -6.363281 7.085938 -6.035156 C 7.269531 -5.710938 7.359375 -5.335938 7.359375 -4.914062 C 7.359375 -4.429688 7.234375 -4.003906 6.988281 -3.644531 C 6.742188 -3.285156 6.386719 -3.007812 5.921875 -2.8125 C 5.460938 -2.621094 4.90625 -2.523438 4.261719 -2.523438 L 4.238281 -2.523438 C 4.09375 -2.523438 3.929688 -2.519531 3.75 -2.511719 C 3.566406 -2.503906 3.386719 -2.492188 3.203125 -2.46875 C 3.019531 -2.449219 2.851562 -2.421875 2.699219 -2.382812 C 2.550781 -2.347656 2.425781 -2.300781 2.332031 -2.242188 C 2.238281 -2.179688 2.191406 -2.109375 2.191406 -2.027344 C 2.191406 -1.886719 2.273438 -1.785156 2.4375 -1.726562 C 2.597656 -1.664062 2.820312 -1.625 3.097656 -1.601562 Z M 4.261719 -6.082031 C 3.859375 -6.082031 3.554688 -5.972656 3.347656 -5.753906 C 3.140625 -5.539062 3.039062 -5.253906 3.039062 -4.898438 C 3.039062 -4.546875 3.136719 -4.257812 3.339844 -4.035156 C 3.542969 -3.808594 3.847656 -3.695312 4.261719 -3.695312 C 4.667969 -3.695312 4.976562 -3.808594 5.1875 -4.039062 C 5.398438 -4.265625 5.503906 -4.550781 5.503906 -4.898438 C 5.503906 -5.246094 5.398438 -5.53125 5.179688 -5.75 C 4.964844 -5.972656 4.660156 -6.082031 4.261719 -6.082031 Z M 4.019531 1.421875 C 4.609375 1.421875 5.035156 1.34375 5.292969 1.1875 C 5.554688 1.03125 5.683594 0.820312 5.683594 0.550781 C 5.683594 0.320312 5.589844 0.144531 5.410156 0.0195312 C 5.226562 -0.101562 4.894531 -0.179688 4.417969 -0.207031 L 3.066406 -0.28125 C 2.949219 -0.21875 2.835938 -0.136719 2.726562 -0.0429688 C 2.613281 0.0546875 2.519531 0.160156 2.449219 0.277344 C 2.378906 0.394531 2.34375 0.523438 2.34375 0.660156 C 2.34375 0.902344 2.472656 1.089844 2.734375 1.222656 C 2.996094 1.355469 3.425781 1.421875 4.019531 1.421875 Z M 4.019531 1.421875 "/></g></g></g><g fill="#ffffff" fill-opacity="1"><g transform="translate(869.783872, 87.443285)"><g><path d="M 0.914062 0 L 0.914062 -7.050781 L 2.289062 -7.050781 L 2.625 -5.410156 C 2.777344 -5.8125 2.988281 -6.152344 3.261719 -6.425781 C 3.535156 -6.699219 3.84375 -6.910156 4.195312 -7.050781 C 4.546875 -7.191406 4.910156 -7.265625 5.292969 -7.265625 C 5.785156 -7.265625 6.195312 -7.175781 6.523438 -7.003906 C 6.847656 -6.828125 7.101562 -6.59375 7.285156 -6.296875 C 7.46875 -6.003906 7.597656 -5.671875 7.671875 -5.304688 C 7.75 -4.9375 7.785156 -4.5625 7.785156 -4.179688 L 7.785156 0 L 5.820312 0 L 5.820312 -3.980469 C 5.820312 -4.226562 5.800781 -4.457031 5.765625 -4.675781 C 5.730469 -4.894531 5.664062 -5.085938 5.574219 -5.257812 C 5.480469 -5.425781 5.351562 -5.558594 5.183594 -5.65625 C 5.019531 -5.75 4.800781 -5.800781 4.535156 -5.800781 C 4.246094 -5.800781 3.976562 -5.707031 3.726562 -5.519531 C 3.472656 -5.332031 3.269531 -5.0625 3.113281 -4.714844 C 2.957031 -4.367188 2.878906 -3.949219 2.878906 -3.464844 L 2.878906 0 Z M 0.914062 0 "/></g></g></g><g fill="#ffffff" fill-opacity="1"><g transform="translate(878.413719, 87.443285)"><g><path d="M 4.019531 0.214844 C 3.390625 0.214844 2.847656 0.121094 2.386719 -0.0625 C 1.925781 -0.246094 1.546875 -0.503906 1.25 -0.839844 C 0.953125 -1.171875 0.730469 -1.570312 0.585938 -2.03125 C 0.4375 -2.492188 0.363281 -3 0.363281 -3.554688 C 0.363281 -4.300781 0.492188 -4.953125 0.753906 -5.507812 C 1.011719 -6.066406 1.402344 -6.496094 1.929688 -6.804688 C 2.457031 -7.109375 3.125 -7.265625 3.929688 -7.265625 C 4.65625 -7.265625 5.265625 -7.117188 5.769531 -6.828125 C 6.269531 -6.535156 6.652344 -6.121094 6.910156 -5.585938 C 7.167969 -5.050781 7.296875 -4.410156 7.296875 -3.664062 L 7.304688 -2.996094 L 2.234375 -2.996094 C 2.246094 -2.5625 2.332031 -2.210938 2.484375 -1.945312 C 2.636719 -1.679688 2.847656 -1.484375 3.121094 -1.363281 C 3.390625 -1.242188 3.703125 -1.183594 4.0625 -1.183594 C 4.441406 -1.183594 4.773438 -1.273438 5.0625 -1.460938 C 5.347656 -1.644531 5.5625 -1.953125 5.703125 -2.382812 L 5.765625 -2.398438 L 7.140625 -1.902344 C 6.953125 -1.480469 6.714844 -1.113281 6.433594 -0.792969 C 6.148438 -0.476562 5.808594 -0.226562 5.410156 -0.0507812 C 5.015625 0.125 4.550781 0.214844 4.019531 0.214844 Z M 2.246094 -4.207031 L 5.449219 -4.207031 C 5.421875 -5.375 4.90625 -5.957031 3.894531 -5.957031 C 3.410156 -5.957031 3.023438 -5.800781 2.730469 -5.488281 C 2.441406 -5.171875 2.277344 -4.746094 2.246094 -4.207031 Z M 2.246094 -4.207031 "/></g></g></g><g fill="#ffffff" fill-opacity="1"><g transform="translate(886.040415, 87.443285)"><g><path d="M 0.914062 0 L 0.914062 -7.050781 L 2.308594 -7.050781 L 2.699219 -5.449219 C 2.792969 -5.78125 2.945312 -6.082031 3.164062 -6.355469 C 3.382812 -6.632812 3.648438 -6.851562 3.960938 -7.015625 C 4.277344 -7.179688 4.613281 -7.265625 4.976562 -7.265625 C 5.441406 -7.265625 5.828125 -7.1875 6.128906 -7.039062 C 6.433594 -6.890625 6.667969 -6.695312 6.835938 -6.445312 C 7.007812 -6.199219 7.125 -5.921875 7.195312 -5.613281 C 7.265625 -5.308594 7.292969 -4.992188 7.289062 -4.671875 C 7.28125 -4.351562 7.253906 -4.046875 7.203125 -3.757812 L 5.640625 -3.609375 C 5.65625 -3.890625 5.65625 -4.164062 5.648438 -4.425781 C 5.640625 -4.6875 5.597656 -4.921875 5.527344 -5.125 C 5.457031 -5.332031 5.339844 -5.496094 5.171875 -5.613281 C 5.003906 -5.734375 4.765625 -5.792969 4.460938 -5.792969 C 4.175781 -5.792969 3.933594 -5.71875 3.734375 -5.570312 C 3.535156 -5.421875 3.371094 -5.226562 3.246094 -4.980469 C 3.121094 -4.738281 3.027344 -4.476562 2.96875 -4.1875 C 2.910156 -3.902344 2.878906 -3.621094 2.878906 -3.347656 L 2.878906 0 Z M 0.914062 0 "/></g></g></g><g fill="#ffffff" fill-opacity="1"><g transform="translate(893.481602, 87.443285)"><g><path d="M 0.734375 -4.84375 L 0.734375 -7.050781 L 2.679688 -7.050781 L 2.679688 -4.84375 Z M 0.734375 0 L 0.734375 -2.207031 L 2.679688 -2.207031 L 2.679688 0 Z M 0.734375 0 "/></g></g></g><g fill="#ffffff" fill-opacity="1"><g transform="translate(784.059065, 102.415558)"><g><path d="M 3.355469 0 L 0.0625 -9.839844 L 2.378906 -9.839844 L 4.695312 -1.863281 L 7.003906 -9.839844 L 9.175781 -9.839844 L 5.890625 0 Z M 3.355469 0 "/></g></g></g><g fill="#ffffff" fill-opacity="1"><g transform="translate(793.307293, 102.415558)"><g><path d="M 0.886719 -8.035156 L 0.886719 -9.839844 L 2.898438 -9.839844 L 2.898438 -8.035156 Z M 0.914062 0 L 0.914062 -7.050781 L 2.878906 -7.050781 L 2.878906 0 Z M 0.914062 0 "/></g></g></g><g fill="#ffffff" fill-opacity="1"><g transform="translate(797.106904, 102.415558)"><g><path d="M 3.945312 0.214844 C 3.207031 0.214844 2.570312 0.0664062 2.03125 -0.226562 C 1.492188 -0.519531 1.078125 -0.945312 0.789062 -1.5 C 0.5 -2.058594 0.355469 -2.734375 0.355469 -3.523438 C 0.355469 -4.328125 0.5 -5.007812 0.78125 -5.5625 C 1.0625 -6.121094 1.464844 -6.542969 1.992188 -6.832031 C 2.519531 -7.121094 3.148438 -7.265625 3.875 -7.265625 C 4.5 -7.265625 5.042969 -7.140625 5.511719 -6.894531 C 5.980469 -6.652344 6.34375 -6.308594 6.609375 -5.867188 C 6.875 -5.429688 7.019531 -4.914062 7.042969 -4.324219 L 5.457031 -4.019531 L 5.394531 -4.046875 C 5.363281 -4.632812 5.226562 -5.082031 4.984375 -5.390625 C 4.746094 -5.699219 4.390625 -5.855469 3.925781 -5.855469 C 3.421875 -5.855469 3.035156 -5.652344 2.769531 -5.242188 C 2.503906 -4.835938 2.371094 -4.269531 2.371094 -3.546875 C 2.371094 -2.984375 2.4375 -2.527344 2.570312 -2.183594 C 2.703125 -1.839844 2.894531 -1.59375 3.140625 -1.4375 C 3.386719 -1.28125 3.683594 -1.203125 4.027344 -1.203125 C 4.429688 -1.203125 4.761719 -1.316406 5.023438 -1.542969 C 5.285156 -1.769531 5.476562 -2.066406 5.59375 -2.433594 L 5.636719 -2.441406 L 7.066406 -1.902344 C 6.941406 -1.507812 6.746094 -1.152344 6.480469 -0.832031 C 6.214844 -0.511719 5.871094 -0.257812 5.453125 -0.0703125 C 5.035156 0.117188 4.53125 0.214844 3.945312 0.214844 Z M 3.945312 0.214844 "/></g></g></g><g fill="#ffffff" fill-opacity="1"><g transform="translate(804.49999, 102.415558)"><g><path d="M 3.765625 0.214844 C 2.886719 0.214844 2.242188 -0.0273438 1.835938 -0.511719 C 1.425781 -0.996094 1.222656 -1.679688 1.222656 -2.570312 L 1.222656 -5.980469 L 0.0820312 -5.980469 L 0.0820312 -7.050781 L 0.769531 -7.050781 C 1.070312 -7.050781 1.28125 -7.132812 1.402344 -7.292969 C 1.519531 -7.453125 1.582031 -7.683594 1.582031 -7.984375 L 1.582031 -9.257812 L 3.160156 -9.257812 L 3.160156 -7.050781 L 5.296875 -7.050781 L 5.296875 -5.980469 L 3.160156 -5.980469 L 3.160156 -2.445312 C 3.160156 -2.140625 3.199219 -1.898438 3.269531 -1.722656 C 3.34375 -1.546875 3.449219 -1.421875 3.582031 -1.351562 C 3.714844 -1.28125 3.867188 -1.242188 4.046875 -1.242188 C 4.355469 -1.242188 4.585938 -1.375 4.738281 -1.640625 C 4.890625 -1.90625 4.984375 -2.25 5.015625 -2.671875 L 6.351562 -2.308594 C 6.328125 -2.015625 6.265625 -1.722656 6.167969 -1.425781 C 6.070312 -1.128906 5.921875 -0.859375 5.722656 -0.613281 C 5.527344 -0.363281 5.269531 -0.164062 4.949219 -0.015625 C 4.628906 0.136719 4.234375 0.214844 3.765625 0.214844 Z M 3.765625 0.214844 "/></g></g></g><g fill="#ffffff" fill-opacity="1"><g transform="translate(810.986117, 102.415558)"><g><path d="M 4.007812 0.214844 C 3.253906 0.214844 2.605469 0.0625 2.0625 -0.242188 C 1.515625 -0.542969 1.097656 -0.972656 0.800781 -1.53125 C 0.503906 -2.089844 0.355469 -2.753906 0.355469 -3.523438 C 0.355469 -4.296875 0.503906 -4.960938 0.800781 -5.519531 C 1.097656 -6.078125 1.515625 -6.507812 2.066406 -6.808594 C 2.613281 -7.113281 3.257812 -7.265625 4.007812 -7.265625 C 4.753906 -7.265625 5.398438 -7.113281 5.945312 -6.808594 C 6.488281 -6.507812 6.910156 -6.078125 7.207031 -5.523438 C 7.507812 -4.964844 7.65625 -4.300781 7.65625 -3.53125 C 7.65625 -2.761719 7.507812 -2.097656 7.210938 -1.535156 C 6.917969 -0.976562 6.496094 -0.542969 5.953125 -0.242188 C 5.40625 0.0625 4.757812 0.214844 4.007812 0.214844 Z M 4.007812 -1.203125 C 4.503906 -1.203125 4.902344 -1.386719 5.195312 -1.753906 C 5.488281 -2.125 5.636719 -2.714844 5.636719 -3.53125 C 5.636719 -4.34375 5.488281 -4.933594 5.199219 -5.300781 C 4.90625 -5.671875 4.511719 -5.855469 4.007812 -5.855469 C 3.503906 -5.855469 3.105469 -5.667969 2.8125 -5.296875 C 2.515625 -4.925781 2.371094 -4.335938 2.371094 -3.523438 C 2.371094 -2.714844 2.519531 -2.125 2.8125 -1.753906 C 3.109375 -1.386719 3.507812 -1.203125 4.007812 -1.203125 Z M 4.007812 -1.203125 "/></g></g></g><g fill="#ffffff" fill-opacity="1"><g transform="translate(818.990717, 102.415558)"><g><path d="M 0.914062 0 L 0.914062 -7.050781 L 2.308594 -7.050781 L 2.699219 -5.449219 C 2.792969 -5.78125 2.945312 -6.082031 3.164062 -6.355469 C 3.382812 -6.632812 3.648438 -6.851562 3.960938 -7.015625 C 4.277344 -7.179688 4.613281 -7.265625 4.976562 -7.265625 C 5.441406 -7.265625 5.828125 -7.1875 6.128906 -7.039062 C 6.433594 -6.890625 6.667969 -6.695312 6.835938 -6.445312 C 7.007812 -6.199219 7.125 -5.921875 7.195312 -5.613281 C 7.265625 -5.308594 7.292969 -4.992188 7.289062 -4.671875 C 7.28125 -4.351562 7.253906 -4.046875 7.203125 -3.757812 L 5.640625 -3.609375 C 5.65625 -3.890625 5.65625 -4.164062 5.648438 -4.425781 C 5.640625 -4.6875 5.597656 -4.921875 5.527344 -5.125 C 5.457031 -5.332031 5.339844 -5.496094 5.171875 -5.613281 C 5.003906 -5.734375 4.765625 -5.792969 4.460938 -5.792969 C 4.175781 -5.792969 3.933594 -5.71875 3.734375 -5.570312 C 3.535156 -5.421875 3.371094 -5.226562 3.246094 -4.980469 C 3.121094 -4.738281 3.027344 -4.476562 2.96875 -4.1875 C 2.910156 -3.902344 2.878906 -3.621094 2.878906 -3.347656 L 2.878906 0 Z M 0.914062 0 "/></g></g></g><g fill="#ffffff" fill-opacity="1"><g transform="translate(826.431905, 102.415558)"><g/></g></g><g fill="#ffffff" fill-opacity="1"><g transform="translate(829.83987, 102.415558)"><g><path d="M 4.839844 0.269531 C 3.921875 0.269531 3.164062 0.109375 2.5625 -0.214844 C 1.964844 -0.535156 1.515625 -1 1.21875 -1.609375 C 0.925781 -2.21875 0.777344 -2.949219 0.777344 -3.808594 L 0.777344 -9.839844 L 2.914062 -9.839844 L 2.914062 -3.675781 C 2.914062 -2.929688 3.078125 -2.363281 3.410156 -1.984375 C 3.738281 -1.601562 4.238281 -1.410156 4.914062 -1.410156 C 5.578125 -1.410156 6.078125 -1.601562 6.414062 -1.984375 C 6.75 -2.363281 6.921875 -2.929688 6.921875 -3.675781 L 6.921875 -9.839844 L 8.914062 -9.839844 L 8.914062 -3.808594 C 8.914062 -2.949219 8.765625 -2.21875 8.46875 -1.613281 C 8.175781 -1.003906 7.726562 -0.539062 7.121094 -0.214844 C 6.519531 0.105469 5.757812 0.269531 4.839844 0.269531 Z M 4.839844 0.269531 "/></g></g></g><g fill="#ffffff" fill-opacity="1"><g transform="translate(839.534711, 102.415558)"><g><path d="M 0.914062 0 L 0.914062 -7.050781 L 2.289062 -7.050781 L 2.625 -5.421875 C 2.695312 -5.605469 2.792969 -5.800781 2.925781 -6.011719 C 3.058594 -6.222656 3.230469 -6.425781 3.4375 -6.613281 C 3.640625 -6.804688 3.890625 -6.960938 4.179688 -7.082031 C 4.472656 -7.203125 4.808594 -7.265625 5.195312 -7.265625 C 5.558594 -7.265625 5.875 -7.183594 6.148438 -7.023438 C 6.417969 -6.863281 6.636719 -6.636719 6.800781 -6.34375 C 6.960938 -6.050781 7.058594 -5.703125 7.085938 -5.304688 C 7.164062 -5.574219 7.28125 -5.828125 7.441406 -6.066406 C 7.601562 -6.300781 7.792969 -6.507812 8.015625 -6.691406 C 8.238281 -6.871094 8.476562 -7.011719 8.730469 -7.113281 C 8.984375 -7.214844 9.242188 -7.265625 9.503906 -7.265625 C 9.957031 -7.265625 10.351562 -7.164062 10.691406 -6.964844 C 11.027344 -6.765625 11.289062 -6.457031 11.476562 -6.035156 C 11.664062 -5.613281 11.757812 -5.0625 11.757812 -4.382812 L 11.757812 0 L 9.792969 0 L 9.792969 -4.226562 C 9.792969 -4.617188 9.753906 -4.925781 9.679688 -5.152344 C 9.605469 -5.382812 9.492188 -5.546875 9.347656 -5.648438 C 9.207031 -5.75 9.03125 -5.800781 8.832031 -5.800781 C 8.621094 -5.800781 8.421875 -5.742188 8.234375 -5.625 C 8.050781 -5.507812 7.890625 -5.347656 7.75 -5.148438 C 7.613281 -4.945312 7.507812 -4.714844 7.429688 -4.449219 C 7.351562 -4.1875 7.3125 -3.90625 7.3125 -3.609375 L 7.3125 0 L 5.347656 0 L 5.347656 -4.171875 C 5.347656 -4.589844 5.304688 -4.914062 5.222656 -5.152344 C 5.140625 -5.386719 5.027344 -5.554688 4.878906 -5.652344 C 4.734375 -5.75 4.566406 -5.800781 4.378906 -5.800781 C 4.179688 -5.800781 3.992188 -5.742188 3.808594 -5.632812 C 3.628906 -5.519531 3.46875 -5.363281 3.328125 -5.160156 C 3.191406 -4.960938 3.078125 -4.722656 3 -4.449219 C 2.917969 -4.175781 2.878906 -3.878906 2.878906 -3.558594 L 2.878906 0 Z M 0.914062 0 "/></g></g></g><g fill="#ffffff" fill-opacity="1"><g transform="translate(852.142813, 102.415558)"><g><path d="M 2.726562 0.214844 C 2.242188 0.214844 1.828125 0.128906 1.480469 -0.0390625 C 1.136719 -0.203125 0.871094 -0.4375 0.6875 -0.734375 C 0.503906 -1.03125 0.414062 -1.378906 0.414062 -1.773438 C 0.414062 -2.125 0.492188 -2.429688 0.65625 -2.691406 C 0.820312 -2.949219 1.046875 -3.164062 1.339844 -3.339844 C 1.632812 -3.515625 1.980469 -3.652344 2.378906 -3.757812 C 2.777344 -3.863281 3.214844 -3.941406 3.691406 -3.988281 C 4.167969 -4.039062 4.667969 -4.0625 5.1875 -4.066406 L 5.1875 -4.5625 C 5.1875 -4.988281 5.085938 -5.324219 4.875 -5.570312 C 4.667969 -5.816406 4.3125 -5.9375 3.808594 -5.9375 C 3.445312 -5.9375 3.148438 -5.835938 2.914062 -5.636719 C 2.679688 -5.433594 2.542969 -5.109375 2.5 -4.660156 L 0.8125 -4.84375 C 0.875 -5.324219 1.03125 -5.75 1.285156 -6.113281 C 1.535156 -6.476562 1.886719 -6.761719 2.339844 -6.960938 C 2.792969 -7.164062 3.34375 -7.265625 4 -7.265625 C 5.0625 -7.265625 5.851562 -7.015625 6.367188 -6.523438 C 6.882812 -6.03125 7.140625 -5.28125 7.140625 -4.265625 L 7.140625 -1.59375 C 7.140625 -1.386719 7.171875 -1.234375 7.238281 -1.128906 C 7.304688 -1.027344 7.414062 -0.976562 7.566406 -0.976562 C 7.671875 -0.976562 7.769531 -0.988281 7.859375 -1.011719 C 7.949219 -1.039062 8.015625 -1.0625 8.066406 -1.078125 L 8.066406 -0.0820312 C 8.011719 -0.0507812 7.921875 -0.0117188 7.800781 0.0351562 C 7.675781 0.0820312 7.535156 0.121094 7.378906 0.15625 C 7.226562 0.195312 7.066406 0.214844 6.898438 0.214844 C 6.460938 0.207031 6.121094 0.101562 5.882812 -0.105469 C 5.644531 -0.316406 5.523438 -0.679688 5.519531 -1.203125 C 5.519531 -1.394531 5.539062 -1.664062 5.582031 -2.007812 C 5.453125 -1.476562 5.25 -1.046875 4.972656 -0.722656 C 4.695312 -0.394531 4.363281 -0.160156 3.980469 -0.0117188 C 3.601562 0.136719 3.183594 0.214844 2.726562 0.214844 Z M 3.230469 -1.015625 C 3.4375 -1.015625 3.652344 -1.070312 3.882812 -1.175781 C 4.113281 -1.28125 4.324219 -1.425781 4.523438 -1.609375 C 4.71875 -1.792969 4.878906 -2 5.007812 -2.230469 C 5.132812 -2.460938 5.195312 -2.703125 5.195312 -2.953125 L 5.195312 -3.058594 C 4.644531 -3.035156 4.160156 -2.988281 3.734375 -2.917969 C 3.3125 -2.847656 2.980469 -2.730469 2.742188 -2.570312 C 2.503906 -2.410156 2.382812 -2.179688 2.382812 -1.875 C 2.382812 -1.636719 2.457031 -1.433594 2.601562 -1.269531 C 2.746094 -1.101562 2.953125 -1.015625 3.230469 -1.015625 Z M 3.230469 -1.015625 "/></g></g></g><g fill="#ffffff" fill-opacity="1"><g transform="translate(860.429115, 102.415558)"><g><path d="M 0.914062 0 L 0.914062 -7.050781 L 2.308594 -7.050781 L 2.699219 -5.449219 C 2.792969 -5.78125 2.945312 -6.082031 3.164062 -6.355469 C 3.382812 -6.632812 3.648438 -6.851562 3.960938 -7.015625 C 4.277344 -7.179688 4.613281 -7.265625 4.976562 -7.265625 C 5.441406 -7.265625 5.828125 -7.1875 6.128906 -7.039062 C 6.433594 -6.890625 6.667969 -6.695312 6.835938 -6.445312 C 7.007812 -6.199219 7.125 -5.921875 7.195312 -5.613281 C 7.265625 -5.308594 7.292969 -4.992188 7.289062 -4.671875 C 7.28125 -4.351562 7.253906 -4.046875 7.203125 -3.757812 L 5.640625 -3.609375 C 5.65625 -3.890625 5.65625 -4.164062 5.648438 -4.425781 C 5.640625 -4.6875 5.597656 -4.921875 5.527344 -5.125 C 5.457031 -5.332031 5.339844 -5.496094 5.171875 -5.613281 C 5.003906 -5.734375 4.765625 -5.792969 4.460938 -5.792969 C 4.175781 -5.792969 3.933594 -5.71875 3.734375 -5.570312 C 3.535156 -5.421875 3.371094 -5.226562 3.246094 -4.980469 C 3.121094 -4.738281 3.027344 -4.476562 2.96875 -4.1875 C 2.910156 -3.902344 2.878906 -3.621094 2.878906 -3.347656 L 2.878906 0 Z M 0.914062 0 "/></g></g></g><g fill="#ffffff" fill-opacity="1"><g transform="translate(867.870302, 102.415558)"><g><path d="M 3.347656 0.21875 C 2.953125 0.21875 2.613281 0.164062 2.328125 0.046875 C 2.046875 -0.0664062 1.808594 -0.222656 1.621094 -0.421875 C 1.433594 -0.621094 1.285156 -0.851562 1.175781 -1.113281 C 1.066406 -1.375 0.988281 -1.652344 0.941406 -1.945312 C 0.894531 -2.238281 0.871094 -2.535156 0.871094 -2.832031 L 0.871094 -7.050781 L 2.839844 -7.050781 L 2.839844 -3.011719 C 2.839844 -2.785156 2.855469 -2.566406 2.890625 -2.355469 C 2.925781 -2.144531 2.984375 -1.957031 3.074219 -1.789062 C 3.164062 -1.621094 3.292969 -1.488281 3.460938 -1.390625 C 3.628906 -1.292969 3.84375 -1.242188 4.109375 -1.242188 C 4.398438 -1.242188 4.667969 -1.335938 4.921875 -1.523438 C 5.179688 -1.707031 5.382812 -1.976562 5.542969 -2.332031 C 5.699219 -2.6875 5.78125 -3.121094 5.78125 -3.628906 L 5.78125 -7.050781 L 7.738281 -7.050781 L 7.738281 0 L 6.371094 0 L 6.035156 -1.640625 C 5.886719 -1.25 5.675781 -0.910156 5.398438 -0.632812 C 5.121094 -0.351562 4.804688 -0.140625 4.453125 0.00390625 C 4.101562 0.148438 3.730469 0.21875 3.347656 0.21875 Z M 3.347656 0.21875 "/></g></g></g><g fill="#ffffff" fill-opacity="1"><g transform="translate(876.500148, 102.415558)"><g/></g></g><g fill="#ffffff" fill-opacity="1"><g transform="translate(879.908113, 102.415558)"><g><path d="M 3.667969 0.269531 C 3.066406 0.269531 2.550781 0.183594 2.125 0.015625 C 1.699219 -0.148438 1.351562 -0.375 1.085938 -0.664062 C 0.820312 -0.949219 0.625 -1.273438 0.5 -1.636719 C 0.378906 -1.996094 0.316406 -2.375 0.316406 -2.769531 C 0.316406 -3.003906 0.332031 -3.230469 0.359375 -3.449219 C 0.390625 -3.667969 0.425781 -3.867188 0.46875 -4.039062 C 0.507812 -4.214844 0.542969 -4.34375 0.570312 -4.425781 L 2.363281 -4.027344 C 2.324219 -3.914062 2.285156 -3.761719 2.25 -3.582031 C 2.214844 -3.398438 2.199219 -3.191406 2.199219 -2.96875 C 2.199219 -2.707031 2.25 -2.46875 2.347656 -2.257812 C 2.445312 -2.042969 2.59375 -1.875 2.792969 -1.746094 C 2.992188 -1.617188 3.242188 -1.554688 3.539062 -1.554688 C 3.808594 -1.554688 4.035156 -1.601562 4.214844 -1.699219 C 4.398438 -1.792969 4.539062 -1.925781 4.644531 -2.089844 C 4.75 -2.253906 4.828125 -2.441406 4.871094 -2.652344 C 4.917969 -2.863281 4.941406 -3.082031 4.941406 -3.304688 L 4.941406 -9.839844 L 7.003906 -9.839844 L 7.003906 -3.421875 C 7.003906 -2.898438 6.945312 -2.414062 6.828125 -1.964844 C 6.710938 -1.515625 6.523438 -1.125 6.261719 -0.789062 C 6 -0.457031 5.65625 -0.195312 5.230469 -0.0117188 C 4.804688 0.175781 4.285156 0.269531 3.667969 0.269531 Z M 3.667969 0.269531 "/></g></g></g><g fill="#ffffff" fill-opacity="1"><g transform="translate(887.713452, 102.415558)"><g><path d="M 0.96875 0 L 0.96875 -9.839844 L 5.179688 -9.839844 C 5.875 -9.839844 6.472656 -9.738281 6.980469 -9.527344 C 7.492188 -9.320312 7.882812 -9 8.160156 -8.574219 C 8.4375 -8.144531 8.578125 -7.601562 8.578125 -6.941406 C 8.578125 -6.476562 8.496094 -6.066406 8.332031 -5.707031 C 8.167969 -5.347656 7.941406 -5.054688 7.644531 -4.828125 C 7.351562 -4.601562 7 -4.453125 6.597656 -4.382812 C 6.816406 -4.351562 7.03125 -4.265625 7.238281 -4.125 C 7.449219 -3.980469 7.636719 -3.777344 7.800781 -3.515625 C 7.964844 -3.25 8.089844 -2.917969 8.175781 -2.515625 L 8.4375 -1.296875 C 8.515625 -0.964844 8.605469 -0.6875 8.710938 -0.472656 C 8.8125 -0.253906 8.902344 -0.0976562 8.976562 0 L 6.886719 0 C 6.839844 -0.0625 6.792969 -0.140625 6.742188 -0.230469 C 6.691406 -0.320312 6.640625 -0.441406 6.585938 -0.589844 C 6.535156 -0.742188 6.476562 -0.941406 6.417969 -1.1875 L 6.15625 -2.273438 C 6.035156 -2.78125 5.832031 -3.164062 5.550781 -3.421875 C 5.265625 -3.679688 4.886719 -3.808594 4.410156 -3.808594 L 2.988281 -3.808594 L 2.988281 0 Z M 2.988281 -5.203125 L 4.808594 -5.203125 C 5.328125 -5.203125 5.730469 -5.324219 6.011719 -5.566406 C 6.296875 -5.808594 6.4375 -6.210938 6.4375 -6.777344 C 6.4375 -7.148438 6.378906 -7.4375 6.253906 -7.644531 C 6.128906 -7.855469 5.949219 -8 5.710938 -8.089844 C 5.472656 -8.175781 5.179688 -8.21875 4.832031 -8.21875 L 2.988281 -8.21875 Z M 2.988281 -5.203125 "/></g></g></g><g fill="#ffffff" fill-opacity="1"><g transform="translate(859.476965, 442.534637)"><g><path d="M 3.097656 0 L 3.097656 -8.4375 L 0.121094 -8.4375 L 0.121094 -9.503906 L 7.328125 -9.503906 L 7.328125 -8.4375 L 4.347656 -8.4375 L 4.347656 0 Z M 3.097656 0 "/></g></g></g><g fill="#ffffff" fill-opacity="1"><g transform="translate(866.930345, 442.534637)"><g><path d="M 3.296875 0.207031 C 2.921875 0.207031 2.597656 0.152344 2.328125 0.0390625 C 2.058594 -0.0703125 1.835938 -0.222656 1.65625 -0.414062 C 1.476562 -0.605469 1.335938 -0.828125 1.230469 -1.078125 C 1.128906 -1.328125 1.054688 -1.59375 1.007812 -1.875 C 0.964844 -2.15625 0.941406 -2.4375 0.941406 -2.722656 L 0.941406 -6.777344 L 2.128906 -6.777344 L 2.128906 -2.753906 C 2.128906 -2.488281 2.15625 -2.234375 2.207031 -1.992188 C 2.257812 -1.746094 2.339844 -1.53125 2.460938 -1.339844 C 2.578125 -1.152344 2.734375 -1 2.933594 -0.886719 C 3.132812 -0.773438 3.378906 -0.71875 3.675781 -0.71875 C 3.945312 -0.71875 4.203125 -0.78125 4.445312 -0.90625 C 4.683594 -1.03125 4.898438 -1.210938 5.085938 -1.445312 C 5.273438 -1.679688 5.421875 -1.964844 5.527344 -2.296875 C 5.636719 -2.628906 5.6875 -3.003906 5.6875 -3.417969 L 5.6875 -6.777344 L 6.863281 -6.777344 L 6.863281 0 L 6.019531 0 L 5.8125 -1.640625 C 5.6875 -1.253906 5.496094 -0.921875 5.238281 -0.648438 C 4.984375 -0.371094 4.691406 -0.160156 4.355469 -0.0117188 C 4.019531 0.132812 3.664062 0.207031 3.296875 0.207031 Z M 3.296875 0.207031 "/></g></g></g><g fill="#ffffff" fill-opacity="1"><g transform="translate(874.795221, 442.534637)"><g><path d="M 3.285156 0.207031 C 2.785156 0.207031 2.378906 0.105469 2.066406 -0.0976562 C 1.753906 -0.304688 1.527344 -0.59375 1.386719 -0.964844 C 1.246094 -1.339844 1.175781 -1.78125 1.175781 -2.289062 L 1.175781 -6.03125 L 0.0546875 -6.03125 L 0.0546875 -6.777344 L 0.628906 -6.777344 C 0.910156 -6.777344 1.097656 -6.851562 1.199219 -7.003906 C 1.296875 -7.15625 1.347656 -7.371094 1.347656 -7.644531 L 1.347656 -8.953125 L 2.347656 -8.953125 L 2.347656 -6.777344 L 4.445312 -6.777344 L 4.445312 -6.03125 L 2.347656 -6.03125 L 2.347656 -2.269531 C 2.347656 -1.875 2.394531 -1.566406 2.480469 -1.339844 C 2.570312 -1.113281 2.699219 -0.957031 2.863281 -0.863281 C 3.03125 -0.769531 3.222656 -0.722656 3.445312 -0.722656 C 3.691406 -0.722656 3.894531 -0.796875 4.054688 -0.949219 C 4.214844 -1.097656 4.332031 -1.296875 4.414062 -1.542969 C 4.492188 -1.789062 4.539062 -2.046875 4.554688 -2.324219 L 5.410156 -2.0625 C 5.390625 -1.808594 5.339844 -1.546875 5.257812 -1.277344 C 5.171875 -1.011719 5.046875 -0.765625 4.882812 -0.539062 C 4.714844 -0.316406 4.5 -0.136719 4.238281 0 C 3.972656 0.136719 3.65625 0.207031 3.285156 0.207031 Z M 3.285156 0.207031 "/></g></g></g><g fill="#ffffff" fill-opacity="1"><g transform="translate(880.410144, 442.534637)"><g><path d="M 3.597656 0.207031 C 3.078125 0.207031 2.621094 0.117188 2.226562 -0.0625 C 1.832031 -0.242188 1.496094 -0.492188 1.226562 -0.816406 C 0.957031 -1.140625 0.753906 -1.519531 0.617188 -1.957031 C 0.480469 -2.394531 0.410156 -2.875 0.410156 -3.390625 C 0.410156 -3.910156 0.480469 -4.386719 0.621094 -4.824219 C 0.761719 -5.261719 0.964844 -5.644531 1.234375 -5.964844 C 1.503906 -6.285156 1.835938 -6.535156 2.234375 -6.714844 C 2.628906 -6.890625 3.085938 -6.980469 3.597656 -6.980469 C 4.113281 -6.980469 4.570312 -6.890625 4.96875 -6.714844 C 5.363281 -6.535156 5.695312 -6.285156 5.964844 -5.964844 C 6.238281 -5.644531 6.441406 -5.265625 6.578125 -4.828125 C 6.714844 -4.394531 6.78125 -3.914062 6.78125 -3.398438 C 6.78125 -2.878906 6.714844 -2.402344 6.578125 -1.960938 C 6.441406 -1.519531 6.238281 -1.140625 5.964844 -0.816406 C 5.695312 -0.492188 5.363281 -0.242188 4.96875 -0.0625 C 4.570312 0.117188 4.113281 0.207031 3.597656 0.207031 Z M 3.597656 -0.695312 C 4.207031 -0.695312 4.6875 -0.925781 5.039062 -1.386719 C 5.386719 -1.847656 5.5625 -2.515625 5.5625 -3.390625 C 5.5625 -4.261719 5.390625 -4.929688 5.042969 -5.390625 C 4.699219 -5.847656 4.214844 -6.078125 3.597656 -6.078125 C 2.980469 -6.078125 2.5 -5.847656 2.152344 -5.390625 C 1.800781 -4.929688 1.625 -4.261719 1.625 -3.390625 C 1.625 -2.519531 1.800781 -1.851562 2.152344 -1.390625 C 2.5 -0.929688 2.980469 -0.695312 3.597656 -0.695312 Z M 3.597656 -0.695312 "/></g></g></g><g fill="#ffffff" fill-opacity="1"><g transform="translate(887.60468, 442.534637)"><g><path d="M 1.007812 0 L 1.007812 -6.777344 L 1.863281 -6.777344 L 2.097656 -5.191406 C 2.144531 -5.425781 2.234375 -5.648438 2.359375 -5.863281 C 2.484375 -6.078125 2.640625 -6.269531 2.820312 -6.433594 C 3.003906 -6.601562 3.207031 -6.730469 3.433594 -6.828125 C 3.664062 -6.925781 3.90625 -6.976562 4.160156 -6.976562 C 4.5625 -6.976562 4.898438 -6.910156 5.164062 -6.78125 C 5.429688 -6.65625 5.640625 -6.480469 5.792969 -6.265625 C 5.949219 -6.046875 6.058594 -5.804688 6.125 -5.535156 C 6.191406 -5.265625 6.226562 -4.988281 6.230469 -4.699219 C 6.230469 -4.410156 6.214844 -4.136719 6.179688 -3.871094 L 5.214844 -3.761719 C 5.234375 -4.042969 5.238281 -4.316406 5.230469 -4.589844 C 5.222656 -4.863281 5.175781 -5.105469 5.097656 -5.328125 C 5.019531 -5.546875 4.886719 -5.71875 4.703125 -5.851562 C 4.519531 -5.980469 4.261719 -6.046875 3.9375 -6.046875 C 3.679688 -6.046875 3.453125 -5.992188 3.261719 -5.878906 C 3.070312 -5.769531 2.90625 -5.621094 2.769531 -5.4375 C 2.628906 -5.25 2.519531 -5.042969 2.433594 -4.816406 C 2.347656 -4.585938 2.28125 -4.351562 2.242188 -4.113281 C 2.203125 -3.871094 2.183594 -3.640625 2.183594 -3.425781 L 2.183594 0 Z M 1.007812 0 "/></g></g></g><g fill="#ffffff" fill-opacity="1"><g transform="translate(894.029321, 442.534637)"><g><path d="M 0.816406 -5.0625 L 0.816406 -6.777344 L 2.050781 -6.777344 L 2.050781 -5.0625 Z M 0.816406 0 L 0.816406 -1.710938 L 2.050781 -1.710938 L 2.050781 0 Z M 0.816406 0 "/></g></g></g></svg>